<?xml version="1.0" encoding="UTF-8"?>
<svg version="1.1" viewBox="0 0 1600 1600" width="1280" height="1280" xmlns="http://www.w3.org/2000/svg">
<path transform="translate(855 119)" d="m0 0c3.22 0.62 6.41 0.926 9.67 1.23 1.35 0.129 2.69 0.258 4.04 0.387 2.11 0.199 4.22 0.397 6.33 0.592 2.04 0.191 4.09 0.387 6.13 0.583 1.22 0.114 2.44 0.228 3.7 0.346 2.79 0.373 2.79 0.373 3.79 1.37 1.42 0.261 2.84 0.467 4.27 0.648 0.883 0.117 1.77 0.233 2.68 0.354 1.42 0.185 1.42 0.185 2.87 0.373 7.9 1.07 15.5 2.48 23.2 4.62 1.89 0.462 1.89 0.462 3.83 0.934 4.1 1.02 8.1 2.27 12.1 3.57 4.41 1.41 8.77 2.75 13.3 3.69 3.75 0.812 3.75 0.812 5.64 1.78 2.5 1.23 4.9 1.78 7.62 2.39 6.3 1.52 12.3 3.62 18.3 5.96 1.05 0.4 2.1 0.799 3.17 1.21 3.01 1.15 6.01 2.31 9.01 3.48 0.748 0.288 1.5 0.576 2.27 0.873 15.3 5.9 30.1 12.7 44.7 20.1 1.58 0.787 3.17 1.57 4.75 2.36 23.4 11.7 45 25.5 66.2 40.6 0.588 0.418 1.18 0.836 1.78 1.27 6.59 4.69 12.9 9.62 19.2 14.7 0.862 0.699 1.72 1.4 2.61 2.12 2.81 2.28 5.6 4.58 8.39 6.88 0.536 0.443 1.07 0.886 1.62 1.34 6.17 5.11 12.1 10.3 17.7 16 1.81 1.84 1.81 1.84 4.76 3.63 3.36 2.29 5.55 4.9 8.15 7.99 1.66 1.87 3.35 3.42 5.29 5.01 2.5 2.05 4.63 4.2 6.72 6.66 2.52 2.92 5.09 5.76 7.74 8.55 0.654 0.687 1.31 1.37 1.98 2.08 1.35 1.41 2.71 2.83 4.06 4.23 0.645 0.679 1.29 1.36 1.96 2.06 0.584 0.609 1.17 1.22 1.77 1.85 1.27 1.57 1.27 1.57 1.27 3.57 0.99 0.33 1.98 0.66 3 1 1.61 1.78 1.61 1.78 3.19 3.94 0.53 0.71 1.06 1.42 1.61 2.15 1.21 1.91 1.21 1.91 1.21 3.91 0.959 0.371 0.959 0.371 1.94 0.75 2.06 1.25 2.06 1.25 2.62 3.31 0.144 0.639 0.289 1.28 0.438 1.94 0.99 0.33 1.98 0.66 3 1 0.926 1.3 1.84 2.62 2.68 3.98 2.39 3.67 5.08 7.13 7.71 10.6 1.61 2.39 1.61 2.39 1.61 4.39 0.99 0.33 1.98 0.66 3 1 1.14 1.5 1.14 1.5 2.25 3.44 1.95 3.28 4.02 6.4 6.25 9.5 2.65 3.75 4.96 7.55 7.12 11.6 1.44 2.57 3 5.04 4.6 7.52 9.47 14.8 18.3 30 25.8 45.9 0.494 1.03 0.987 2.06 1.5 3.12 6.65 14.1 12.7 28.6 18.4 43.1 0.369 0.94 0.738 1.88 1.12 2.85 2.17 5.58 4.17 11.2 6.01 16.9 0.339 1.04 0.678 2.09 1.03 3.16 2.09 6.68 3.92 13.4 5.49 20.2 0.754 3.18 1.65 6.03 2.98 9.02 1.82 4.39 2.66 8.66 3.5 13.3 1.03 5.42 2.05 10.8 3.5 16.1 1.54 5.92 2.62 11.9 3.69 17.9 0.269 1.47 0.269 1.47 0.543 2.98 0.96 5.53 1.36 10.7 1.27 16.3 0.327 2.27 0.327 2.27 0.875 4.31 8.38 39 5.89 83.7 1.69 123-0.122 1.15-0.244 2.3-0.37 3.48-0.638 5.59-1.53 10.8-3.19 16.1-0.469 2.54-0.905 5.07-1.31 7.62-1.58 9.35-3.76 18.5-6.03 27.7-0.643 2.62-1.26 5.25-1.88 7.88-2.34 9.92-5.26 19.3-9.01 28.8-1.37 3.55-2.59 7.15-3.83 10.8-2.08 5.98-4.36 11.8-6.85 17.7-0.952 2.26-1.82 4.52-2.65 6.82-1.19 3.23-2.65 6.27-4.23 9.34-1.51 3.01-2.92 6.05-4.34 9.1-3.02 6.49-6.06 13-9.12 19.4-0.424 0.901-0.849 1.8-1.29 2.73-1.98 4.18-4 8.22-6.46 12.1-1.17 2.04-2.34 4.08-3.5 6.12-1.5 2.63-3 5.25-4.5 7.88-0.424 0.742-0.848 1.48-1.28 2.25-6.34 11.1-12.9 22-19.7 32.8-0.77 1.22-1.54 2.43-2.31 3.65-5.04 7.93-10.3 15.7-15.7 23.4-0.584 0.839-1.17 1.68-1.77 2.54-3.85 5.52-7.75 11-11.7 16.5-0.603 0.841-0.603 0.841-1.22 1.7-0.391 0.545-0.782 1.09-1.19 1.65-1.16 1.66-2.24 3.36-3.32 5.07-0.602 0.851-1.2 1.7-1.82 2.58h-2c-0.267 0.741-0.534 1.48-0.809 2.25-1.17 2.7-2.41 4.55-4.25 6.82-2.76 3.45-5.44 6.94-8.06 10.5-4.17 5.58-8.53 11-12.9 16.4-3.53 4.32-7.01 8.67-10.4 13.1-4.16 5.31-8.34 10.6-12.6 15.9-0.561 0.709-1.12 1.42-1.7 2.15-0.523 0.65-1.05 1.3-1.59 1.97-0.464 0.581-0.928 1.16-1.41 1.76-0.411 0.411-0.822 0.823-1.25 1.25h-2c-0.244 0.727-0.487 1.45-0.738 2.2-1.42 3.14-3.08 5.06-5.45 7.55-3.68 3.96-7.06 8.02-10.3 12.3-1.41 1.78-2.89 3.33-4.51 4.91-1.19 1.42-2.38 2.85-3.56 4.28-1.55 1.85-3.15 3.66-4.75 5.47-3.51 3.98-6.76 8.13-9.99 12.3-0.561 0.629-1.12 1.26-1.7 1.91h-2c-0.227 0.531-0.454 1.06-0.688 1.61-1.75 3.18-3.99 5.87-6.31 8.64-0.677 0.831-0.677 0.831-1.37 1.68-1.16 1.4-2.39 2.74-3.63 4.07h-2c-0.241 0.548-0.482 1.1-0.73 1.66-1.57 2.89-3.49 5.24-5.58 7.78-0.759 0.927-1.52 1.85-2.3 2.81-2.36 2.72-4.83 5.23-7.39 7.75-7.72 8.03-15.1 16.3-22 25-2.85 3.51-5.8 6.8-9 10-1.53 1.76-3.04 3.53-4.54 5.32-1.46 1.68-1.46 1.68-3.02 3.21-1.67 1.62-1.67 1.62-3.44 4.47h-2c-0.268 0.639-0.536 1.28-0.812 1.94-1.19 2.06-1.19 2.06-4.19 3.06-0.268 0.701-0.536 1.4-0.812 2.12-1.61 3.91-4.11 6.98-7.19 9.88h-2c-0.227 0.516-0.454 1.03-0.688 1.56-3 5.58-6.79 10-11.3 14.4-0.906 1.1-1.8 2.2-2.69 3.31-0.763 0.887-1.53 1.77-2.31 2.69h-2c-0.227 0.536-0.454 1.07-0.688 1.62-1.77 3.2-3.85 5.67-6.31 8.38h-2c-0.268 0.804-0.536 1.61-0.812 2.44-0.392 0.846-0.784 1.69-1.19 2.56-0.99 0.33-1.98 0.66-3 1-1.13 1.92-1.95 3.89-2.81 5.94-1.19 2.06-1.19 2.06-3.44 4.3-3.36 3.38-6.3 7.02-9.26 10.7-1.12 1.38-2.3 2.7-3.49 4.02h-2c-0.249 0.733-0.498 1.47-0.754 2.22-1.36 3.04-2.89 4.82-5.18 7.21-4.26 4.59-8.13 9.37-12 14.3-2.89 3.72-5.83 7.38-8.85 11-3.57 4.31-6.77 8.78-9.84 13.4-0.698 0.891-0.698 0.891-1.41 1.8h-2c-0.247 0.722-0.495 1.44-0.75 2.19-1.38 3.1-3.1 5.18-5.25 7.81-1.55 2.04-3.09 4.08-4.62 6.12-0.776 1.03-1.55 2.07-2.35 3.13-1.39 1.88-2.73 3.8-4.02 5.74h-2c-0.268 0.969-0.536 1.94-0.812 2.94-0.392 1.01-0.784 2.02-1.19 3.06-0.99 0.33-1.98 0.66-3 1-0.715 1.65-1.37 3.32-2 5-1.12 1.8-2.28 3.57-3.5 5.31-0.608 0.883-1.22 1.77-1.84 2.68-0.547 0.664-1.09 1.33-1.66 2.01h-2c-0.264 0.73-0.529 1.46-0.801 2.21-1.2 2.8-2.59 4.96-4.39 7.41-3.12 4.37-6.03 8.82-8.89 13.4-1.73 2.7-3.51 5.36-5.32 8.01-5.37 7.91-10.3 16-15.1 24.3-2.29 3.93-4.56 7.79-7.25 11.5-2.34 3.09-2.34 3.09-3.82 6.28-6.1 12.1-15.4 18.8-27.9 23.1-13.2 4.02-27.7 2.71-40-3.38-10.7-6.49-18.7-16-24.5-26.9-2.43-4.57-5.21-8.91-7.99-13.3-1.03-1.62-2.07-3.24-3.1-4.86-0.507-0.795-1.01-1.59-1.54-2.41-1.87-2.95-3.7-5.91-5.54-8.88-3.64-5.87-7.35-11.7-11.4-17.3-2.55-3.59-4.96-7.27-7.36-11-4.36-6.67-8.99-13-13.9-19.2-2.24-2.93-4.28-5.93-6.3-9.01-4.03-5.91-8.2-11.6-12.7-17.2-1.29-1.81-1.29-1.81-1.29-3.81h-2c-1.46-1.76-2.84-3.59-4.19-5.44-0.817-1.12-1.63-2.23-2.45-3.34-0.779-1.06-1.56-2.12-2.36-3.22-1.69-2.21-3.41-4.4-5.13-6.59-1.42-1.82-2.82-3.66-4.21-5.5-4.63-6.12-9.41-12-14.6-17.6-8.05-9-8.05-9-8.05-12.3-0.99-0.33-1.98-0.66-3-1-1.79-2.11-3.47-4.22-5.12-6.44-4.03-5.27-8.22-10.3-12.7-15.2-2.24-2.49-4.37-5.05-6.48-7.66-7.67-9.46-15.6-18.6-23.9-27.6-2.54-2.76-4.92-5.56-7.16-8.56-4.12-5.47-8.87-10.3-13.5-15.3-2.88-3.07-5.67-6.2-8.41-9.38-1.98-2.27-4.01-4.49-6.04-6.72-3.09-3.42-6.05-6.91-8.94-10.5-4.83-5.97-10-11.6-15.3-17.2-5.09-5.47-10-11-14.7-16.8-3.41-4.22-6.98-8.23-10.7-12.2-4.5-4.81-8.73-9.75-12.9-14.9-2.14-2.61-4.37-5.12-6.64-7.61-3.86-4.24-7.51-8.62-11.1-13.1-5.79-7.1-11.7-14.1-17.9-20.9-3.97-4.36-7.59-8.93-11.2-13.6-3.92-5.04-8.03-9.89-12.3-14.7-3-3.43-5.56-6.97-8.06-10.8l-1.75-1.75c-0.619-0.619-0.619-0.619-1.25-1.25v-2h-2c-0.773-1.49-0.773-1.49-1.56-3-1.58-2.77-3.29-5.08-5.44-7.44-5.3-5.85-9.86-12.3-14.6-18.6-1.28-1.73-2.57-3.44-3.87-5.16-7.59-10-14.9-20.3-22.1-30.6-1.38-1.97-2.79-3.92-4.21-5.86-1.93-2.69-3.55-5.48-5.16-8.38-1.4-2.34-2.95-4.53-4.53-6.75-2.99-4.2-5.68-8.51-8.29-12.9-1.08-1.8-2.23-3.56-3.4-5.3-1.52-2.31-2.87-4.58-4.19-7-2.04-3.74-4.23-7.34-6.5-10.9-7.56-12.2-13.9-25.1-20.2-38-1.74-3.51-3.5-7.01-5.25-10.5-0.936-1.87-1.87-3.74-2.81-5.62-0.662-1.32-1.33-2.64-2-3.96-1.8-3.55-3.51-7.08-4.95-10.8-0.331-0.848-0.663-1.7-1-2.57l-0.996-2.55c-0.645-1.58-1.29-3.17-1.94-4.75-2.12-5.29-4.01-10.6-5.91-16-0.851-2.39-1.73-4.75-2.65-7.11-2.03-5.35-3.63-10.9-5.32-16.3-0.749-2.41-1.54-4.8-2.4-7.17-0.785-2.63-0.785-2.63 0.215-4.63h-2l-0.84-3.68c-0.366-1.58-0.732-3.17-1.1-4.75-0.182-0.802-0.365-1.6-0.553-2.43-0.606-3.88-0.606-3.88-2.51-7.13-0.332-1.39-0.614-2.79-0.875-4.19-0.788-4.15-1.68-8.26-2.62-12.4-1.36-6.22-2.18-12.4-2.77-18.8-0.321-3.87-0.321-3.87-1.73-7.42-1.45-3.26-1.45-6.54-1.6-10.1-0.0392-0.747-0.0784-1.49-0.119-2.26-0.124-2.38-0.236-4.75-0.346-7.13-0.115-2.39-0.233-4.78-0.357-7.16-0.0763-1.48-0.148-2.97-0.214-4.45 0.113-3.39 0.113-3.39-1.37-6.19-0.0981-1.35-0.128-2.7-0.129-4.05-0.00311-0.864-0.00621-1.73-0.00941-2.62 0.00198-0.947 0.00396-1.89 6e-3 -2.87-0.00136-0.978-0.00273-1.96-0.00414-2.96-0.00203-3.19 0.00429-6.38 0.0119-9.56 0.00122-1.07 0.00244-2.14 0.00369-3.25 0.0164-12.2 0.0501-24.3 0.559-36.5 0.0392-0.944 0.0783-1.89 0.119-2.86 0.304-6.05 0.304-6.05 1.44-8.33 0.306-2.67 0.569-5.33 0.812-8 1.98-20 5.52-39.7 9.63-59.3 0.553-2.69 1.07-5.38 1.58-8.07 0.731-3.68 1.77-7.1 2.98-10.7 0.715-2.78 1.38-5.56 2.05-8.35 2.44-10.2 5.18-19.9 8.95-29.6 0.903-2.48 1.8-4.96 2.69-7.44l1.2-3.31c0.776-2.27 1.48-4.56 2.13-6.87 0.832-2.86 1.78-5.39 3.05-8.07 1.3-2.76 2.28-5.33 2.94-8.31h2c0.182-0.82 0.364-1.64 0.551-2.48l0.762-3.27 0.738-3.23c0.939-2.98 2.01-4.62 3.95-7.02 0.723-1.91 1.44-3.81 2.12-5.73 1.64-4.24 3.8-8.23 5.88-12.3 1.2-2.43 2.4-4.86 3.59-7.29 4.67-9.02 9.84-17.8 14.9-26.6 0.558-0.984 1.12-1.97 1.69-2.98 0.502-0.885 1-1.77 1.52-2.68 1.17-2.12 2.28-4.25 3.34-6.42h2c0.227-0.66 0.454-1.32 0.688-2 4.29-9.8 11.4-18.6 17.9-27 1.16-1.58 2.26-3.2 3.35-4.84 6.15-9.17 13.3-17.6 20.4-26 3.97-4.65 7.81-9.4 11.7-14.1 4.51-5.51 4.51-5.51 6.45-7.45 1.57-1.58 2.99-3.22 4.42-4.93 2.58-3.03 5.28-5.85 8.12-8.62 0.722-0.742 1.44-1.48 2.19-2.25 8.28-8.1 17.1-15.6 25.9-23.1 1.87-1.61 3.72-3.24 5.58-4.87 4.12-3.61 8.32-7.13 12.5-10.6 0.735-0.606 1.47-1.21 2.23-1.84 5.23-4.29 10.6-8.42 16-12.4 1.76-1.31 3.48-2.66 5.18-4.04 2.39-1.86 4.54-2.72 7.34-3.82 1.02-0.979 2.02-1.98 3-3 1.33-0.667 2.67-1.33 4-2 0.419-0.446 0.838-0.892 1.27-1.35 2.25-2.15 4.71-3.49 7.42-5.02 3.51-2.01 7.01-4.02 10.4-6.19 7.26-4.58 14.6-8.91 22.1-13.1 0.674-0.381 1.35-0.761 2.04-1.15 3.85-2.16 7.74-4.21 11.7-6.16 1.25-0.621 2.49-1.24 3.73-1.87 2.05-1.03 4.1-2.05 6.15-3.07 3.04-1.52 6.08-3.04 9.1-4.59 4.24-2.17 8.43-4.13 12.9-5.7 2.44-0.906 4.81-1.95 7.2-2.98 3.07-1.29 6.2-2.45 9.32-3.61 4.06-1.5 8.11-3.01 12.1-4.59 8.96-3.49 18.1-6.47 27.2-9.34 1.23-0.389 2.46-0.778 3.72-1.18 6.39-1.98 12.6-3.63 19.3-4.59 2.47-0.404 2.47-0.404 5.2-2.48 1.91-0.471 1.91-0.471 4.05-0.781 0.78-0.12 1.56-0.24 2.36-0.363 0.811-0.117 1.62-0.235 2.46-0.355 5.02-0.733 9.43-1.53 14.1-3.5 2.05-0.387 4.12-0.718 6.19-1 3.84-0.53 7.61-1.16 11.4-1.96 6.22-1.27 12.5-1.92 18.8-2.6 2.3-0.249 4.6-0.5 6.9-0.754 1-0.108 2.01-0.215 3.04-0.326 2.31-0.307 4.43-0.786 6.68-1.36 34.2-4.66 76.4-6.59 110 0.489zm-92.8 309c-4.67 1.1-9.4 1.93-14.1 2.82-3.03 0.685-5.6 1.58-8.45 2.78-1.83 0.532-3.66 1.05-5.5 1.56-13.7 4.17-27.2 10.2-39.5 17.4-1.38 0.782-2.77 1.56-4.15 2.34-10.2 5.79-10.2 5.79-19.3 13.2-1.6 1.48-3.23 2.62-5.08 3.78-0.825 0.557-1.65 1.11-2.5 1.69v2c-0.589 0.272-1.18 0.544-1.79 0.824-7.39 3.92-13.3 11-18.6 17.3-1.27 1.44-2.61 2.82-3.97 4.18-7.09 7.14-13.6 14.8-18.4 23.6-1.22 2.02-1.22 2.02-2.71 3.5-3.41 3.43-5.3 8.27-7.51 12.5-0.333 0.633-0.665 1.27-1.01 1.92-5.65 10.8-5.65 10.8-9.42 22.3-0.57 1.82-0.57 1.82-2.57 3.82-0.862 2.21-0.862 2.21-1.59 4.81-0.289 0.984-0.578 1.97-0.876 2.98-0.301 1.06-0.602 2.12-0.913 3.21-0.466 1.63-0.466 1.63-0.942 3.29-8.96 31.7-14.7 69.9-4.47 102 1.35 4.62 2.1 9.37 2.94 14.1 0.891 3.78 2.26 7.04 3.84 10.6 0.49 1.55 0.952 3.11 1.38 4.69 3.17 10.9 8.29 20.8 13.7 30.8 0.612 1.14 1.22 2.29 1.85 3.47 2.74 5.06 5.41 9.66 9.08 14.1 0.849 1.3 1.68 2.61 2.5 3.94 3.36 5.13 7.33 9.67 11.4 14.3 0.505 0.576 1.01 1.15 1.53 1.75 0.454 0.514 0.908 1.03 1.38 1.56 1.23 1.48 1.23 1.48 3.23 4.48h2c0.208 0.539 0.415 1.08 0.629 1.63 12.3 21.2 45.5 38.2 67.4 47.4 1.05 0.449 2.1 0.897 3.18 1.36 5.56 2.35 11.1 4.62 16.8 6.64 0.96 0.353 1.92 0.706 2.91 1.07 5.56 1.97 10.2 3.47 16.1 2.93 0.33 0.66 0.66 1.32 1 2 2.77 0.662 2.77 0.662 6.06 1.06 1.17 0.165 2.35 0.33 3.55 0.5 2.69 0.348 5.38 0.682 8.07 1 3.31 0.438 3.31 0.438 5.31 1.44 7.96 1.25 16.1 1.1 24.1 1.12 1.03 0.00459 2.06 0.00918 3.13 0.0139 0.971-0.00201 1.94-0.00403 2.94-0.0061 0.877-0.00113 1.75-0.00226 2.66-0.00342 2.2 0.00858 2.2 0.00858 4.15-1.13 1.85-0.199 3.71-0.345 5.57-0.465 1.69-0.117 1.69-0.117 3.41-0.236 2.36-0.156 4.72-0.309 7.09-0.461 6.5-0.454 12.6-1.19 18.9-2.84 1.18-0.284 2.35-0.567 3.56-0.859 13.6-3.52 26.8-7.96 39.4-14.1 0.607-0.291 1.21-0.583 1.84-0.883 12.3-5.92 23.5-12.6 34.3-21 1.91-1.43 3.87-2.78 5.87-4.07 3.04-2.1 5.38-4.41 7.96-7.04 1.82-1.5 3.65-2.98 5.5-4.44 4.03-3.26 7.5-6.33 10.5-10.6v-2c0.99-0.33 1.98-0.66 3-1 0.144-0.639 0.289-1.28 0.438-1.94 0.186-0.681 0.371-1.36 0.562-2.06 0.613-0.301 1.23-0.603 1.86-0.913 2.42-1.23 3.39-2.36 4.98-4.54 0.506-0.684 1.01-1.37 1.53-2.07 0.516-0.715 1.03-1.43 1.56-2.17 0.769-1.04 0.769-1.04 1.55-2.11 1.51-2.06 3.01-4.13 4.51-6.21 0.476-0.653 0.952-1.31 1.44-1.98 1.87-2.58 3.57-5.04 5-7.9 1.3-2.6 2.62-4.61 4.31-6.94 3.46-5.04 5.6-10.5 7.8-16.2 1.2-3.06 2.34-5.85 4.06-8.66 1.64-2.79 2.26-5.34 2.95-8.49 0.801-3.63 1.35-5.75 3.44-8.88 0.4-2.16 0.726-4.33 1-6.5 0.778-6.17 0.778-6.17 3-9.5 0.462-2.64 0.833-5.22 1.12-7.88 0.13-1.06 0.13-1.06 0.262-2.14 0.349-2.98 0.616-5.86 0.543-8.86 0.0703-2.12 0.0703-2.12 2.07-4.12 0.305-1.9 0.305-1.9 0.259-4.08 0.00946-1.26 0.00946-1.26 0.0191-2.55-0.00405-0.911-0.0081-1.82-0.0123-2.76 0.00191-0.937 0.00383-1.87 0.0058-2.84 0.00136-1.99-0.00234-3.97-0.0107-5.96-0.0107-3.03-1.33e-4 -6.06 0.0127-9.09-0.00132-1.93-0.00389-3.86-0.00781-5.79 0.00607-1.35 0.00607-1.35 0.0123-2.74-0.0356-4.82-0.489-8.64-2.28-13.2-0.23-1.87-0.396-3.75-0.5-5.62-0.572-8.06-1.4-15.9-4.5-23.4-0.462-1.62-0.898-3.24-1.31-4.88-3.38-12.5-7.67-23.7-13.7-35.2-1.01-1.96-1.99-3.93-2.95-5.92-0.46-0.945-0.46-0.945-0.93-1.91-0.835-1.72-1.67-3.44-2.5-5.16-1.54-3.02-1.54-3.02-3.66-5.51-2.15-2.69-3.45-5.41-4.98-8.48-13.8-19.7-30.4-37.1-50-51-1.22-0.882-1.22-0.882-2.47-1.78-19.9-14.2-41.3-25.7-65.1-31.6-1.9-0.475-3.79-1.02-5.66-1.58-4.19-1.14-8.35-1.89-12.6-2.59-7.99-1.3-7.99-1.3-9.12-2.44-5.88-0.94-11.6-1.15-17.5-1.13-0.892-9.57e-4 -1.78-0.00191-2.7-0.0029-1.88-6.77e-4 -3.76 0.00114-5.64 0.00534-2.84 0.00533-5.68 5.15e-5 -8.52-0.00635-17.1-0.106-17.1-0.106-34 2.54zm-470 37.6 1 2zm718 145 1 3zm-751 1 1 3zm751 53 1 4zm-4 24 1 2zm-745 25 1 4z" fill="#0091FD"/>
<path transform="translate(274,764)" d="m0 0c5.32 7.97 6.62 18.6 7 28 0.99-0.33 1.98-0.66 3-1v2c0.784 0.0825 1.57 0.165 2.38 0.25 2.62 0.75 2.62 0.75 3.94 2.81 0.34 0.959 0.34 0.959 0.688 1.94h-3v10c1.65 0.33 3.3 0.66 5 1v4c1.32 0.33 2.64 0.66 4 1-0.33 0.66-0.66 1.32-1 2 1.32 0.33 2.64 0.66 4 1 0.33 2.64 0.66 5.28 1 8 1.49-0.495 1.49-0.495 3-1 0.124 0.639 0.248 1.28 0.375 1.94 0.206 0.681 0.413 1.36 0.625 2.06 0.99 0.495 0.99 0.495 2 1 0.961 2.88 1.11 4.7 1.06 7.69-0.00902 0.808-0.018 1.62-0.0273 2.45-0.0116 0.615-0.0232 1.23-0.0352 1.86 0.722-0.186 1.44-0.371 2.19-0.562 2.94-0.457 4.95-0.173 7.81 0.562 0.169 1.44 0.335 2.87 0.5 4.31 0.0928 0.801 0.186 1.6 0.281 2.43 0.219 2.26 0.219 2.26 0.219 5.26h-2v8c1.21 0.186 1.21 0.186 2.44 0.375 0.846 0.206 1.69 0.413 2.56 0.625 0.33 0.66 0.66 1.32 1 2 0.99 0.33 1.98 0.66 3 1v3h4c3.26 3.84 3.29 7.09 3 12h4c0.838 4.66 1.02 8.37 0 13h5v2h2 1c0.33-0.66 0.66-1.32 1-2 2.31 0.33 4.62 0.66 7 1 0.33 1.98 0.66 3.96 1 6-1.65 0.33-3.3 0.66-5 1v2 2c0.66 0.33 1.32 0.66 2 1-0.33 1.32-0.66 2.64-1 4 1.98-0.66 3.96-1.32 6-2 1.2 5.69 1 11.2 1 17 1.42-0.0309 1.42-0.0309 2.88-0.0625 3.12 0.0625 3.12 0.0625 5.12 1.06 0.625 2.06 0.625 2.06 1 4h-3v3c1.32 0.33 2.64 0.66 4 1-0.33 0.99-0.66 1.98-1 3 0.389 2.14 0.389 2.14 1 4 1.98 0.33 3.96 0.66 6 1-1.98 0.99-1.98 0.99-4 2 0.33 0.99 0.66 1.98 1 3 1.65 0.717 3.31 1.38 5 2 2.35 2.35 2.73 3.96 3.62 7.12 0.26 0.91 0.521 1.82 0.789 2.76 0.29 1.05 0.29 1.05 0.586 2.12h7c0.168-1.62 0.334-3.25 0.5-4.88 0.0928-0.905 0.186-1.81 0.281-2.74 0.282-3.08 0.228-5.45-0.781-8.38-1.49-0.99-1.49-0.99-3-2 0.33-0.99 0.66-1.98 1-3 2.06-0.688 2.06-0.688 4-1-0.66-0.33-1.32-0.66-2-1 0.99-1.65 1.98-3.3 3-5h-4c-0.33 0.99-0.66 1.98-1 3-0.66-0.33-1.32-0.66-2-1-0.33 0.99-0.66 1.98-1 3h-4c-0.66-0.99-1.32-1.98-2-3h-1c-0.66-2.64-1.32-5.28-2-8 2.31-0.33 4.62-0.66 7-1-0.33-1.98-0.66-3.96-1-6 1.98 0.99 3.96 1.98 6 3-0.33-0.99-0.66-1.98-1-3 0.33-0.33 0.66-0.66 1-1-0.165-1.11-0.33-2.23-0.5-3.38-0.5-3.62-0.5-3.62 0.5-6.62h2v2c1.65-0.33 3.3-0.66 5-1-2.35-1.48-3.63-2.03-6.44-1.81-2.84 0.9-5.08 2.18-7.56 3.81-0.66-0.66-1.32-1.32-2-2-0.33 0.66-0.66 1.32-1 2 0.66 0.33 1.32 0.66 2 1-0.99 0.33-1.98 0.66-3 1-0.33-0.99-0.66-1.98-1-3-0.33 0.99-0.66 1.98-1 3-1.98-0.99-1.98-0.99-4-2v-2c-0.99-0.33-1.98-0.66-3-1-0.33-0.99-0.66-1.98-1-3-0.66-0.33-1.32-0.66-2-1v-2c1.32-0.66 2.64-1.32 4-2v2h2c0.33 1.32 0.66 2.64 1 4h2v-2c2.08-0.553 3.84-1 6-1-0.267-1.98-0.267-1.98-1-4-0.99-0.33-1.98-0.66-3-1 0.33-0.99 0.66-1.98 1-3h-4v-2h4c-0.99-0.33-1.98-0.66-3-1-0.556-2.46-1.09-4.91-1.62-7.38-0.16-0.699-0.32-1.4-0.484-2.12-0.385-1.82-0.646-3.66-0.891-5.51 0.66-0.66 1.32-1.32 2-2 0.33 0.66 0.66 1.32 1 2 3 2 4.54 2.42 8 3 1.67 0.333 3.33 0.667 5 1v2c-2.31-0.33-4.62-0.66-7-1v2h7c0.66 1.65 1.32 3.3 2 5-1.65 0.66-3.3 1.32-5 2 0.33 2.64 0.66 5.28 1 8 0.454-0.495 0.908-0.99 1.38-1.5 1.62-1.5 1.62-1.5 3.62-1.5 0.33-0.66 0.66-1.32 1-2 3 6.75 3 6.75 3 9 1.32 0.33 2.64 0.66 4 1-0.33 1.32-0.66 2.64-1 4 0.763-0.0619 1.53-0.124 2.31-0.188 3.27 0.228 3.5 0.916 5.69 3.19 3.1 1.2 3.1 1.2 6 2v2h3v2h3c0.99 2.48 0.99 2.48 2 5h4v2c0.66 0.33 1.32 0.66 2 1-0.33 1.98-0.66 3.96-1 6 0.66 0.33 1.32 0.66 2 1-0.66 0.99-1.32 1.98-2 3 0.66 0.99 1.32 1.98 2 3 0.125 2.69 0.125 2.69 0 5 1.32 0.33 2.64 0.66 4 1 0.66-0.99 1.32-1.98 2-3 2.43 6.29 2.43 6.29 1 10 5.48 1.95 5.48 1.95 11 1v-2h3v2h5c1.6 4 0.293 7.05-1 11-0.33-0.66-0.66-1.32-1-2h-3l2 4h-3c0.33 1.65 0.66 3.3 1 5 2.31-0.33 4.62-0.66 7-1-0.33-0.66-0.66-1.32-1-2 1.32-0.33 2.64-0.66 4-1 0.562 1.94 0.562 1.94 1 4l-1 1 3-3v2h2c-0.33 1.32-0.66 2.64-1 4 0.66 0.33 1.32 0.66 2 1h-2v2c0.557-0.186 1.11-0.371 1.69-0.562 2.71-0.513 4.66-0.102 7.31 0.562v2c1.32 0.33 2.64 0.66 4 1 0.33 2.31 0.66 4.62 1 7 1.32 0.33 2.64 0.66 4 1h-3v4h2c0.33-0.66 0.66-1.32 1-2 0.99 0.33 1.98 0.66 3 1-0.33 0.99-0.66 1.98-1 3-2.06 0.688-2.06 0.688-4 1 0.33 1.32 0.66 2.64 1 4 0.578-0.206 1.15-0.413 1.75-0.625 2.25-0.375 2.25-0.375 4.25 0.688 0.66 0.309 1.32 0.619 2 0.938 2.23-0.783 2.23-0.783 4-2 0.33 1.65 0.66 3.3 1 5-3 2-3 2-5 2 1.31 1.56 1.31 1.56 3 3h3v4c0.99-0.33 1.98-0.66 3-1v2c0.66-0.66 1.32-1.32 2-2 0.66-0.66 1.32-1.32 2-2 0.33 3.63 0.66 7.26 1 11 1.65 0.66 3.3 1.32 5 2-0.99 0.66-1.98 1.32-3 2h3v3c0.99 0.33 1.98 0.66 3 1v2c0.99-0.33 1.98-0.66 3-1 0.99 0.99 1.98 1.98 3 3-0.33 0.33-0.66 0.66-1 1 0.66 0.66 1.32 1.32 2 2h-4c0.33 1.65 0.66 3.3 1 5h5v5h3c0.33 0.66 0.66 1.32 1 2 0.763 0.103 1.53 0.206 2.31 0.312 3.59 0.918 4.46 2.82 6.69 5.69 2.13 0.87 2.13 0.87 4 1-0.33-0.99-0.66-1.98-1-3 1.32 0.33 2.64 0.66 4 1v-2h-5v-4c0.887 0.371 1.77 0.743 2.69 1.12 3.84 1.01 4.79 0.356 8.31-1.12 2.71 0.929 3.96 1.96 6 4h-2c-0.268 0.619-0.536 1.24-0.812 1.88-1.19 2.12-1.19 2.12-4.19 4.12-0.66-0.33-1.32-0.66-2-1 0.56 2.94 0.56 2.94 2 6 3 1.92 3 1.92 6 3v2c0.66 0.33 1.32 0.66 2 1-0.66 0.99-1.32 1.98-2 3h-2c0.464 0.835 0.464 0.835 0.938 1.69 1.15 2.51 1.79 4.56 2.06 7.31-0.938 2.31-0.938 2.31-2 4l2 2c2.11-0.319 2.11-0.319 4-1-0.33 1.65-0.66 3.3-1 5h2c0.33-0.66 0.66-1.32 1-2 1.65 0.66 3.3 1.32 5 2 0.33 2.31 0.66 4.62 1 7h2c-0.66 1.65-1.32 3.3-2 5 1.61-0.0619 1.61-0.0619 3.25-0.125 3.41 0.114 4.96 0.338 7.75 2.12v7h2v-5h1v5c1.65 0.33 3.3 0.66 5 1 0.773 2.98 1.41 5.98 2 9 0.33-0.99 0.66-1.98 1-3 0.99 0.33 1.98 0.66 3 1v4h2c0.33 0.99 0.66 1.98 1 3 3.01 1.23 3.01 1.23 6 2v11c1.92-0.0309 1.92-0.0309 3.88-0.0625 3.88-0.0625 3.88-0.0625 6.12 1.06v2c0.784 0.124 1.57 0.247 2.38 0.375 2.62 0.625 2.62 0.625 4.62 2.62 0.565 2.66 0.738 5.29 1 8h-3c0.33 0.99 0.66 1.98 1 3-0.33 0.99-0.66 1.98-1 3 0.99 0.33 1.98 0.66 3 1v2c1.98-0.66 3.96-1.32 6-2v4l-1 1c0.99 0.33 1.98 0.66 3 1 0.33 0.66 0.66 1.32 1 2 1.32-0.33 2.64-0.66 4-1 0.103 0.639 0.206 1.28 0.312 1.94 0.34 1.02 0.34 1.02 0.688 2.06 0.99 0.33 1.98 0.66 3 1 0.33 1.65 0.66 3.3 1 5 3.17-1.83 3.17-1.83 5-5 1.65 0.33 3.3 0.66 5 1v6c-1.65 0.33-3.3 0.66-5 1h2v5h7c0.33 0.66 0.66 1.32 1 2v-2c2.96 0.613 4.38 1.25 7 3v3c0.99 0.33 1.98 0.66 3 1v3c1.65-0.33 3.3-0.66 5-1 0.66 1.98 1.32 3.96 2 6 0.66-0.99 1.32-1.98 2-3 0.66 0.33 1.32 0.66 2 1v-2c3.08 1.03 3.84 1.75 6 4 0.99 0.66 1.98 1.32 3 2 0.688 2.12 0.688 2.12 1 4-2.81 0.25-2.81 0.25-6 0-1.88-2-1.88-2-3-4l-1 1c0.833 2.17 0.833 2.17 3 3 0.66 0.99 1.32 1.98 2 3 0.99 0.66 1.98 1.32 3 2v2c1.65-0.33 3.3-0.66 5-1 0.33 0.99 0.66 1.98 1 3 0.99 0.33 1.98 0.66 3 1 0.33 2.31 0.66 4.62 1 7 1.98 0.66 3.96 1.32 6 2-0.33 0.99-0.66 1.98-1 3 0.99 0.33 1.98 0.66 3 1l-2 2c1.65 0.33 3.3 0.66 5 1v5c0.66 0.33 1.32 0.66 2 1-0.33 0.99-0.66 1.98-1 3 0.993 1.67 1.99 3.34 3 5 0.75 3.25 0.75 3.25 1 6l-1 1c3.3 0.33 6.6 0.66 10 1v6h3c2.12 4.62 2.12 4.62 1 8h4v-2h-2v-3c2.97 0.66 5.94 1.32 9 2 0.33 1.65 0.66 3.3 1 5-0.99 0.33-1.98 0.66-3 1 1.98 0.66 3.96 1.32 6 2 0.33 2.64 0.66 5.28 1 8 0.33-0.66 0.66-1.32 1-2h3c2.79 4.18 1.8 6.15 1 11 0.99 0.33 1.98 0.66 3 1-0.66 0.33-1.32 0.66-2 1 1.26 2.51 2.5 2.87 5 4v3h4v9c-0.66 0.33-1.32 0.66-2 1 0.33 1.32 0.66 2.64 1 4h5c-0.33 1.32-0.66 2.64-1 4h-3v2h2c3 2 3 2 3.81 4 0.0928 0.99 0.0928 0.99 0.188 2-0.66 0.66-1.32 1.32-2 2-0.33-0.66-0.66-1.32-1-2-0.784 0.495-1.57 0.99-2.38 1.5-2.62 1.5-2.62 1.5-4.62 1.5 0.752 3.28 0.752 3.28 4 5h-4v4c-0.99 0.33-1.98 0.66-3 1-0.33 0.99-0.66 1.98-1 3 1.65-0.66 3.3-1.32 5-2v2h5v-3c3.41-1.14 4-0.867 7.19 0.438l2.17 0.871c0.543 0.228 1.09 0.456 1.64 0.691v-3c2.31 0.33 4.62 0.66 7 1-0.66 0.66-1.32 1.32-2 2 0.66 0.33 1.32 0.66 2 1 0.407 2.32 0.744 4.66 1 7-1.32 0.33-2.64 0.66-4 1-0.33 1.65-0.66 3.3-1 5 1.65 0.66 3.3 1.32 5 2v1h-5c0.276 1.94 0.276 1.94 1 4 0.99 0.66 1.98 1.32 3 2 0.33 0.99 0.66 1.98 1 3 0.66 0.33 1.32 0.66 2 1v4c-3 1-3 1-6 0v-4c-2.79-1.11-2.79-1.11-5-1h-2c-0.33-0.66-0.66-1.32-1-2-0.99-0.33-1.98-0.66-3-1v-2c0.66-0.33 1.32-0.66 2-1 0.33-0.99 0.66-1.98 1-3-1.98 0.33-3.96 0.66-6 1-0.66-1.32-1.32-2.64-2-4-0.99 1.32-1.98 2.64-3 4-0.33-0.66-0.66-1.32-1-2-1.64-0.722-3.31-1.39-5-2-0.33 0.66-0.66 1.32-1 2v-3c-0.99 0.33-1.98 0.66-3 1-0.113 5.08-0.113 5.08 1 10-1.65 0.33-3.3 0.66-5 1-0.33-1.32-0.66-2.64-1-4h2c0.33-1.32 0.66-2.64 1-4-1.98 0.66-3.96 1.32-6 2v-2c-2.31-0.66-4.62-1.32-7-2-1.22 2.07-1.22 2.07-1 5 0.658 1.34 1.33 2.67 2 4 0.422 1.57 0.797 3.16 1.12 4.75 0.168 0.799 0.335 1.6 0.508 2.42 0.121 0.603 0.242 1.21 0.367 1.83h5c-0.33 1.65-0.66 3.3-1 5 0.99-0.66 1.98-1.32 3-2 0.66 1.98 1.32 3.96 2 6h-4c-0.33 1.98-0.66 3.96-1 6l1.79 0.586c4.12 1.36 8.2 2.73 12.2 4.41v2c-0.66 0.66-1.32 1.32-2 2-0.677 2.2-0.677 2.2-1.12 4.62-0.168 0.817-0.335 1.63-0.508 2.48-0.121 0.626-0.242 1.25-0.367 1.9 0.66 0.33 1.32 0.66 2 1 0.66-0.33 1.32-0.66 2-1 0.402 1.45 0.402 1.45 0.812 2.94 0.392 1.01 0.784 2.02 1.19 3.06 0.99 0.33 1.98 0.66 3 1 1.96 2.98 2 4.26 2 8 0.681-0.351 1.36-0.701 2.06-1.06 3.65-1.16 6.22-0.666 9.94 0.0625 0.33 1.65 0.66 3.3 1 5-0.99 0.33-1.98 0.66-3 1v2c0.66 0.33 1.32 0.66 2 1 0.289 1.99 0.573 3.99 0.754 5.99 0.204 2.21 0.204 2.21 1.25 5.01h3c1.35 2.71 1 4.99 1 8 0.439 2.27 0.439 2.27 1 4 1.32 0.33 2.64 0.66 4 1 0.33 2.64 0.66 5.28 1 8h-2c0.506 2.17 1 4 2 6-7.85-3.45-11.9-11.2-15.9-18.4-2.48-4.37-5.19-8.6-7.88-12.8-1.04-1.64-2.08-3.28-3.12-4.92-0.513-0.807-1.03-1.61-1.55-2.45-1.87-2.96-3.72-5.94-5.56-8.91-3.64-5.87-7.35-11.6-11.4-17.3-2.55-3.59-4.96-7.27-7.36-11-4.36-6.67-8.99-13-13.9-19.2-2.24-2.93-4.28-5.93-6.3-9.01-4.03-5.91-8.2-11.6-12.7-17.2-1.29-1.81-1.29-1.81-1.29-3.81h-2c-1.46-1.76-2.84-3.59-4.19-5.44-0.817-1.12-1.63-2.23-2.45-3.34-0.779-1.06-1.56-2.12-2.36-3.22-1.69-2.21-3.41-4.4-5.13-6.59-1.42-1.82-2.82-3.66-4.21-5.5-4.63-6.12-9.41-12-14.6-17.6-8.05-9-8.05-9-8.05-12.3-0.99-0.33-1.98-0.66-3-1-1.79-2.11-3.47-4.22-5.12-6.44-4.03-5.27-8.22-10.3-12.7-15.2-2.24-2.49-4.37-5.05-6.48-7.66-7.67-9.46-15.6-18.6-23.9-27.6-2.54-2.76-4.92-5.56-7.16-8.56-4.12-5.47-8.87-10.3-13.5-15.3-2.88-3.07-5.67-6.2-8.41-9.38-1.98-2.27-4.01-4.49-6.04-6.72-3.09-3.42-6.05-6.91-8.94-10.5-4.83-5.97-10-11.6-15.3-17.2-5.09-5.47-10-11-14.7-16.8-3.41-4.22-6.98-8.23-10.7-12.2-4.5-4.81-8.73-9.75-12.9-14.9-2.14-2.61-4.37-5.12-6.64-7.61-3.86-4.24-7.51-8.62-11.1-13.1-5.79-7.1-11.7-14.1-17.9-20.9-3.97-4.36-7.59-8.93-11.2-13.6-3.92-5.04-8.03-9.89-12.3-14.7-3-3.43-5.56-6.97-8.06-10.8-0.866-0.866-0.866-0.866-1.75-1.75-0.413-0.412-0.825-0.825-1.25-1.25v-2h-2c-0.773-1.49-0.773-1.49-1.56-3-1.58-2.77-3.29-5.08-5.44-7.44-5.3-5.85-9.86-12.3-14.6-18.6-1.28-1.73-2.57-3.44-3.87-5.16-7.59-10-14.9-20.3-22.1-30.6-1.38-1.97-2.79-3.92-4.21-5.86-1.93-2.69-3.55-5.48-5.16-8.38-1.4-2.34-2.95-4.53-4.53-6.75-2.99-4.2-5.68-8.51-8.29-12.9-1.08-1.8-2.23-3.56-3.4-5.3-1.52-2.31-2.87-4.58-4.19-7-2.04-3.74-4.23-7.34-6.5-10.9-7.56-12.2-13.9-25.1-20.2-38-1.74-3.51-3.5-7.01-5.25-10.5-0.936-1.87-1.87-3.74-2.81-5.62-0.662-1.32-1.33-2.64-2-3.96-1.8-3.55-3.51-7.08-4.95-10.8-0.331-0.848-0.663-1.7-1-2.57-0.329-0.843-0.657-1.69-0.996-2.55-0.645-1.58-1.29-3.17-1.94-4.75-2.12-5.29-4.01-10.6-5.91-16-0.851-2.39-1.73-4.75-2.65-7.11-2.03-5.35-3.63-10.9-5.32-16.3-0.749-2.41-1.54-4.8-2.4-7.17-0.785-2.63-0.785-2.63 0.215-4.63h-2c-1.38-5.43-2.35-10.4-2-16 0.33-0.33 0.66-0.66 1-1z" fill="#0094FD"/>
<path transform="translate(670,369)" d="m0 0h8c0.495 1.49 0.495 1.49 1 3h7c0.402 1.18 0.402 1.18 0.812 2.38 1.04 2.91 1.04 2.91 4.19 4.62v2h4v2c0.99-0.33 1.98-0.66 3-1 3.86 1.27 7.19 3.19 10.1 6.06 0.938 1.94 0.938 1.94-0.0625 4.94-2.6 1.65-3.86 2-7 2v2c-2.31 0.33-4.62 0.66-7 1 0.33 2.31 0.66 4.62 1 7-0.99 0.33-1.98 0.66-3 1v4c0.66 0.33 1.32 0.66 2 1-3.48 1.16-5.46 0.708-9 0v6c0.66 0.33 1.32 0.66 2 1 3 2 3 2 5 4l-2 1c-0.33 0.99-0.66 1.98-1 3h-2v-3c-2.64 0.33-5.28 0.66-8 1-0.33 0.99-0.66 1.98-1 3h-3c2.31 0.685 4.2 1 6.62 1 2.38 0 2.38 0 4.38 1 1.67 0.0397 3.33 0.0438 5 0v6c0.66 0.33 1.32 0.66 2 1v2h2c0.186-1.18 0.186-1.18 0.375-2.38 0.625-2.62 0.625-2.62 2.62-4.62h3v-2c3.63-0.33 7.26-0.66 11-1 0.33-1.65 0.66-3.3 1-5 1.62-0.503 3.25-1 4.88-1.5 0.905-0.278 1.81-0.557 2.74-0.844 2.38-0.656 2.38-0.656 4.38-0.656v-2c-1.32-0.33-2.64-0.66-4-1-0.33-2.31-0.66-4.62-1-7-0.763 0.371-1.53 0.743-2.31 1.12-1.33 0.433-1.33 0.433-2.69 0.875-0.99-0.66-1.98-1.32-3-2-0.188-2.62-0.188-2.62 0-5 0.99-0.33 1.98-0.66 3-1 0.66-0.99 1.32-1.98 2-3 2.62-0.188 2.62-0.188 5 0v-4c4.93-1.97 8.78-2.18 14-2v3h-3c-0.33 0.99-0.66 1.98-1 3-0.33-0.33-0.66-0.66-1-1-0.66 0.33-1.32 0.66-2 1 0.66 0.66 1.32 1.32 2 2 0.99-0.33 1.98-0.66 3-1 0.66 0.33 1.32 0.66 2 1 0.33-0.66 0.66-1.32 1-2 3.41-2.4 4.71-3 9-3 0.33 2.31 0.66 4.62 1 7-1.32 0.33-2.64 0.66-4 1v4h-5v2h-7c0.33 0.99 0.66 1.98 1 3 4.81 0.687 8.94 1.13 13.8 0.375 3.3-0.462 4.13-0.431 7.31 1 0.639 0.536 1.28 1.07 1.94 1.62v1c3.3 0.33 6.6 0.66 10 1v2h12v-2c-2.97 0.495-2.97 0.495-6 1-0.33-1.32-0.66-2.64-1-4 5.75-0.125 5.75-0.125 8 1v-3c0.619 0.186 1.24 0.371 1.88 0.562 2.17 0.674 2.17 0.674 4.12-0.562 0.33 0.66 0.66 1.32 1 2 0.784-0.165 1.57-0.33 2.38-0.5 7.62-1.05 15-0.48 22.6 0.5 0.33-0.66 0.66-1.32 1-2 4.32-0.371 6.43 0.621 10 3 0.743 0.351 1.48 0.701 2.25 1.06 1.75 0.938 1.75 0.938 2.75 2.94 0.99 0.33 1.98 0.66 3 1 0.66-1.32 1.32-2.64 2-4 1.65 0.66 3.3 1.32 5 2v3c0.33-0.66 0.66-1.32 1-2 0.66-0.99 1.32-1.98 2-3 1.65 1.65 3.3 3.3 5 5-0.33 0.33-0.66 0.66-1 1 1.65 0.33 3.3 0.66 5 1 0.33-0.99 0.66-1.98 1-3 6.93 0.495 6.93 0.495 14 1v-5c4.29 0.33 8.58 0.66 13 1 0.33 1.65 0.66 3.3 1 5h7c0.33-1.32 0.66-2.64 1-4 0.66 1.32 1.32 2.64 2 4 0.66-0.33 1.32-0.66 2-1 3.38 2.26 3.6 3.36 5 7 0.66 0.33 1.32 0.66 2 1 0.625 2.06 0.625 2.06 1 4h7v2c1.98-0.33 3.96-0.66 6-1 0.33 1.32 0.66 2.64 1 4 1.03 0.124 2.06 0.248 3.12 0.375 3.5 0.564 6.56 1.41 9.88 2.62-0.33-1.32-0.66-2.64-1-4 1.3 0.0206 2.6 0.0412 3.94 0.0625 1.35 0.0215 2.71 0.00898 4.06-0.0625 0.33-0.33 0.66-0.66 1-1l-4-2c0.33-0.66 0.66-1.32 1-2l-3 1v3c-5.54 0.369-5.54 0.369-7.88-1.5-0.371-0.495-0.743-0.99-1.12-1.5h2v-2c-1.32-0.33-2.64-0.66-4-1v-2h2v-2h-6c-0.33 0.99-0.66 1.98-1 3 0.66 0.33 1.32 0.66 2 1h-5c0.66-0.33 1.32-0.66 2-1v-2c-0.99-0.33-1.98-0.66-3-1 0.66-0.66 1.32-1.32 2-2-0.165-0.743-0.33-1.49-0.5-2.25-0.5-2.75-0.5-2.75 0.812-5.62 0.34-1.55 0.34-1.55 0.688-3.12-1.3-1.99-2.81-3.56-4.46-5.25-2.07-2.34-2.81-4.74-3.54-7.75h2c0.33-0.99 0.66-1.98 1-3h9c-0.33-0.99-0.66-1.98-1-3-1.65-0.33-3.3-0.66-5-1-0.66-2.31-1.32-4.62-2-7h8v2c0.866 0.433 0.866 0.433 1.75 0.875 0.743 0.371 1.48 0.743 2.25 1.12 0.701 0.268 1.4 0.536 2.12 0.812 1.88 1.19 1.88 1.19 2.81 3.75 0.351 0.804 0.701 1.61 1.06 2.44 2.55 0.894 2.55 0.894 5 1-0.66 1.32-1.32 2.64-2 4 1.48-0.495 1.48-0.495 3-1 1.48 1.49 1.48 1.49 3 3 0.66-0.33 1.32-0.66 2-1 0.33 0.66 0.66 1.32 1 2h2c0.33-0.66 0.66-1.32 1-2 3.51 0 5.68 0.143 9 1v4c0.66-0.66 1.32-1.32 2-2-0.319-2.11-0.319-2.11-1-4 0.99-0.66 1.98-1.32 3-2 1.16 0.65 1.16 0.65 2.34 1.31 1 0.557 2.01 1.11 3.04 1.69 1.5 0.835 1.5 0.835 3.02 1.69 2.41 1.46 2.41 1.46 4.6 1.31 2.33-0.959 2.33-0.959 4-4v3c1.98 0.33 3.96 0.66 6 1 0.33-0.66 0.66-1.32 1-2 7.16 0.227 12.8 1.76 18 7v4c0.66 0.66 1.32 1.32 2 2 0.625 2.63 0.625 2.63 1 5 1.32 0.33 2.64 0.66 4 1 0.33-0.99 0.66-1.98 1-3 3.15-0.262 4.62-0.248 7.31 1.5 0.835 0.743 0.835 0.743 1.69 1.5-0.33 1.65-0.66 3.3-1 5-1.65 0.33-3.3 0.66-5 1h5c0.33 0.99 0.66 1.98 1 3 3.3 0.33 6.6 0.66 10 1-3 2-3 2-6 2 1.98 0.66 3.96 1.32 6 2v2c0.639 0.268 1.28 0.536 1.94 0.812 2.06 1.19 2.06 1.19 3.06 4.19 1.98 0.33 3.96 0.66 6 1 0.515 2.06 1.02 4.11 1.44 6.19 0.186 0.598 0.371 1.2 0.562 1.81 0.66 0.33 1.32 0.66 2 1v2c-0.66 0.33-1.32 0.66-2 1 0.33 0.99 0.66 1.98 1 3 0.619-0.309 1.24-0.619 1.88-0.938 4.12-2.06 4.12-2.06 7.12-1.5 3 1.44 3 1.44 4.38 4.56 0.309 1.42 0.309 1.42 0.625 2.88-1.65 0.66-3.3 1.32-5 2 2.64 0.99 5.28 1.98 8 3v6h2v2c1.32-0.33 2.64-0.66 4-1v4c0.66 0.33 1.32 0.66 2 1v-8h8v2c0.687-0.0116 1.37-0.0232 2.08-0.0352 0.901-0.00902 1.8-0.018 2.73-0.0273 0.893-0.0116 1.79-0.0232 2.71-0.0352 2.48 0.0977 2.48 0.0977 5.48 1.1 0.33 0.66 0.66 1.32 1 2 0.928 0.464 0.928 0.464 1.88 0.938 2.12 1.06 2.12 1.06 3.69 2.69 1.47 1.72 1.47 1.72 4.44 1.38v-4c0.928 0.227 1.86 0.454 2.81 0.688 3.16 0.676 3.16 0.676 5.06-1.12 0.371-0.516 0.742-1.03 1.12-1.56 0.186 1.21 0.186 1.21 0.375 2.44 0.206 0.846 0.412 1.69 0.625 2.56 0.66 0.33 1.32 0.66 2 1v2h2v4c-0.66 0.33-1.32 0.66-2 1-0.33 0.99-0.66 1.98-1 3-0.99-0.33-1.98-0.66-3-1-1.33 3-1.33 3 0 6h2c2.12 4.62 2.12 4.62 1 8-0.99 0.33-1.98 0.66-3 1 0.66 0.99 1.32 1.98 2 3h-2l1.56 2.69c1.55 3.56 1.7 4.73 0.438 8.31-2 3-2 3-4.62 3.69-0.784 0.103-1.57 0.206-2.38 0.312v2h-4v2h-2v2h3v4h-5v3h-2v-3h-6v8c-3.3 0.33-6.6 0.66-10 1-0.309-0.784-0.619-1.57-0.938-2.38-0.991-2.55-0.991-2.55-2.06-4.62 0.282-2.34 0.613-4.68 1-7 1.65 0.33 3.3 0.66 5 1-1.32-1.32-2.64-2.64-4-4 0.33-0.99 0.66-1.98 1-3-1.32-0.33-2.64-0.66-4-1 1.65-0.99 3.3-1.98 5-3-0.33-0.66-0.66-1.32-1-2-3.03-0.658-3.03-0.658-6-1v-2c-3.11 0.669-3.11 0.669-4.19 3.06-0.268 0.639-0.536 1.28-0.812 1.94h-1c-0.639 0.66-1.28 1.32-1.94 2-2.06 2-2.06 2-4.06 2v-4h-6c0.33 1.65 0.66 3.3 1 5h4c0.66 2.31 1.32 4.62 2 7-1.32 0.33-2.64 0.66-4 1 0.205 0.592 0.41 1.18 0.621 1.79 1.38 4.04 2.7 7.98 3.38 12.2h8c-0.33 0.99-0.66 1.98-1 3 0.99-0.33 1.98-0.66 3-1 3.77-1.26 5.37-0.371 9 1-0.33 1.32-0.66 2.64-1 4 3.09 2.21 5.66 3.9 9.31 5l2.69 1c0.875 2.12 0.875 2.12 1 4h3v-4c-0.99-0.66-1.98-1.32-3-2 0.66-1.32 1.32-2.64 2-4h3c0.33-0.66 0.66-1.32 1-2 1.65 0.33 3.3 0.66 5 1 1.16 3.47 1.07 6.36 1 10h-3c0.0206 0.969 0.0412 1.94 0.0625 2.94-0.0625 3.06-0.0625 3.06-1.06 4.06-2 0.0408-4 0.0425-6 0-0.33-0.99-0.66-1.98-1-3-0.144 1.26-0.289 2.52-0.438 3.81-0.3 2.61-0.721 4.66-1.56 7.19h-4c0.33 2.64 0.66 5.28 1 8-2.97-0.33-5.94-0.66-9-1-0.33-1.32-0.66-2.64-1-4-1.32-0.33-2.64-0.66-4-1 0.66-2.97 1.32-5.94 2-9-0.763-0.0825-1.53-0.165-2.31-0.25-2.69-0.75-2.69-0.75-4.5-2.62-1.19-2.12-1.19-2.12-1.19-5.12-1.78-0.864-1.78-0.864-4-1-2.31 1.73-2.31 1.73-4 4v2c-2.97-0.33-5.94-0.66-9-1 0.33 0.99 0.66 1.98 1 3h6v6h-4c0.344 2.47 0.344 2.47 1 5 0.66 0.33 1.32 0.66 2 1l-4 2h9c0.144 0.784 0.289 1.57 0.438 2.38 0.44 2.59 0.44 2.59 1.56 4.62-0.0865 1.55-0.24 3.09-0.438 4.62-0.102 0.817-0.204 1.63-0.309 2.48-0.126 0.94-0.126 0.94-0.254 1.9h-2c-0.33 0.66-0.66 1.32-1 2-0.33-0.33-0.66-0.66-1-1-1.49 1.98-1.49 1.98-3 4v-5c-3.17 1.83-3.17 1.83-5 5-0.268-0.804-0.536-1.61-0.812-2.44-0.392-0.846-0.784-1.69-1.19-2.56-0.99-0.33-1.98-0.66-3-1 0.33-1.32 0.66-2.64 1-4-0.66-0.33-1.32-0.66-2-1 0.33-0.99 0.66-1.98 1-3-0.639-0.268-1.28-0.536-1.94-0.812-2.06-1.19-2.06-1.19-3.06-4.19-0.66-0.66-1.32-1.32-2-2 1.49-3.47 1.49-3.47 3-7-0.66-0.66-1.32-1.32-2-2 1.49-3.47 1.49-3.47 3-7h-2c-0.0928-1.55-0.0928-1.55-0.188-3.12-0.776-3.7-1.08-4.52-3.44-7.12-1.18-1.36-1.18-1.36-2.38-2.75 0.33-0.99 0.66-1.98 1-3 1.98-0.33 3.96-0.66 6-1-0.66-0.66-1.32-1.32-2-2-2.05 0.0552-2.05 0.0552-4.31 0.5-3.81 0.496-6.4 0.793-9.69-1.5-1.25-3-1.25-3-2-6-0.33-0.66-0.66-1.32-1-2-2.02-0.652-2.02-0.652-4-1v6c1.65 0.66 3.3 1.32 5 2v6l-4 2c0.33 0.99 0.66 1.98 1 3h3c0.33 1.32 0.66 2.64 1 4h-2v5c-0.66-0.33-1.32-0.66-2-1v3h-2c1.27 4.42 1.27 4.42 4 8 0.921 4.05 1 7.86 1 12 0.33 0.66 0.66 1.32 1 2 2.55 16.7 2.55 16.7-1 22-0.289-1.11-0.578-2.23-0.875-3.38-0.817-3.63-0.817-3.63-3.12-5.62-0.471-1.8-0.471-1.8-0.781-3.96-0.12-0.783-0.24-1.57-0.363-2.37-0.176-1.23-0.176-1.23-0.355-2.48-0.728-5.01-1.43-9.52-3.5-14.2-0.462-1.62-0.898-3.24-1.31-4.88-3.38-12.5-7.67-23.7-13.7-35.2-1.01-1.96-1.99-3.93-2.95-5.92-0.307-0.63-0.614-1.26-0.93-1.91-0.835-1.72-1.67-3.44-2.5-5.16-1.54-3.02-1.54-3.02-3.66-5.51-2.15-2.69-3.45-5.41-4.98-8.48-8.73-12.5-18.9-24.6-30-35-0.62-0.579-1.24-1.16-1.88-1.75-5.38-4.86-11.2-9.06-17.1-13.2l-2.47-1.78c-19.9-14.2-41.3-25.7-65.1-31.6-1.9-0.475-3.79-1.02-5.66-1.58-4.19-1.14-8.35-1.89-12.6-2.59-7.99-1.3-7.99-1.3-9.12-2.44-5.88-0.94-11.6-1.15-17.5-1.13-0.892-9.57e-4 -1.78-0.00191-2.7-0.0029-1.88-6.77e-4 -3.76 0.00114-5.64 0.00534-2.84 0.00533-5.68 5.15e-5 -8.52-0.00635-17.1-0.106-17.1-0.106-34 2.54-4.67 1.1-9.4 1.93-14.1 2.82-3.03 0.685-5.6 1.58-8.45 2.78-1.83 0.532-3.66 1.05-5.5 1.56-13.7 4.17-27.2 10.2-39.5 17.4-1.38 0.782-2.77 1.56-4.15 2.34-10.2 5.78-10.2 5.78-19.3 13.2-4.69 4.47-4.69 4.47-7.54 4.47v2c-3.46 3-3.46 3-6 3-0.495 1.49-0.495 1.49-1 3-1.6 1.54-1.6 1.54-3.62 3.19-3.58 3.03-6.63 6.23-9.64 9.82-1.74 1.99-1.74 1.99-4.11 4.31-2.93 2.99-5.5 6.13-8.07 9.43-0.48 0.612-0.96 1.22-1.45 1.85-3.24 4.16-6.23 8.42-8.99 12.9-0.37 0.487-0.74 0.975-1.12 1.48h-2c-0.289 0.928-0.577 1.86-0.875 2.81-1.12 3.19-1.12 3.19-3.12 6.19-1.95 0.293-1.95 0.293-4.12 0.188-1.28-0.0619-2.56-0.124-3.88-0.188v-7c0.99-0.33 1.98-0.66 3-1 0.733-2.02 0.733-2.02 1-4h-2c-0.196-4.22 0.198-7.17 2-11h2c-2.76-1.38-4.88-0.618-7.84-0.188-3.13 0.271-6.07-0.328-9.16-0.812-0.99 0.33-1.98 0.66-3 1v-7c-1.98 0.33-3.96 0.66-6 1 0.33-0.99 0.66-1.98 1-3h6c0.334-2.87 0.334-2.87 0-6-1.92-1.77-1.92-1.77-4-3v-2h2v-2c-4.27-0.199-7.08 0.367-11 2-0.66-0.33-1.32-0.66-2-1 0.33 1.32 0.66 2.64 1 4-3.37-0.312-3.37-0.312-7-1-2.57-3.85-1.83-5.59-1-10h2c-0.33-0.536-0.66-1.07-1-1.62-1.23-2.91-1.14-5.24-1-8.38 1.09-0.309 2.19-0.619 3.31-0.938 2.24-0.646 4.47-1.32 6.69-2.06 0.33-0.66 0.66-1.32 1-2h3v-2c0.66-0.33 1.32-0.66 2-1-0.495-3.96-0.495-3.96-1-8 0.99-0.66 1.98-1.32 3-2-0.33-0.66-0.66-1.32-1-2-0.0397-1.67-0.0438-3.33 0-5-2.97-0.495-2.97-0.495-6-1 0.375-1.94 0.375-1.94 1-4 0.66-0.33 1.32-0.66 2-1 0.652-2.02 0.652-2.02 1-4h3c-0.703-2.51-0.703-2.51-2-5-2.04-0.887-2.04-0.887-4-1-0.103 0.619-0.206 1.24-0.312 1.88-0.688 2.12-0.688 2.12-3.69 4.12v4c-3.48 1.16-4.34 0.775-7.69-0.438-1.21-0.431-1.21-0.431-2.45-0.871-0.615-0.228-1.23-0.456-1.86-0.691 1.88-3.88 1.88-3.88 3-5v-4c2.97-0.495 2.97-0.495 6-1-0.33-2.31-0.66-4.62-1-7-0.619 0.186-1.24 0.371-1.88 0.562-2.12 0.438-2.12 0.438-4.12-0.562 0.33 1.32 0.66 2.64 1 4-1.49 0.495-1.49 0.495-3 1-0.66-0.33-1.32-0.66-2-1v6h-4v-2c-1.49 0.495-1.49 0.495-3 1-0.66-0.66-1.32-1.32-2-2-1.65-1.02-3.32-2.03-5-3 0.33-1.32 0.66-2.64 1-4h3v-2c-0.66-0.33-1.32-0.66-2-1 1.32-0.66 2.64-1.32 4-2-1.32-0.66-2.64-1.32-4-2l2-1c-0.495-1.49-0.495-1.49-1-3l2-1c0.652-2.02 0.652-2.02 1-4 2.97-0.495 2.97-0.495 6-1 0.144-0.619 0.289-1.24 0.438-1.88 0.562-2.12 0.562-2.12 1.56-4.12 2-1 2-1 4.44-2 2.79-1.15 4.41-1.85 6.56-4 0.643-2.07 0.643-2.07 1-4h6c0 9 0 9-1 11 0.66 0.66 1.32 1.32 2 2h-5v4c2.48-0.495 2.48-0.495 5-1 0.33-1.65 0.66-3.3 1-5 1.02 0.0928 1.02 0.0928 2.06 0.188 3.88-0.248 6.51-1.38 9.94-3.19 2.28-2.57 2.28-2.57 4-5h2c0.495 0.99 0.495 0.99 1 2 0.33-0.66 0.66-1.32 1-2h5l-2 1v2c2.48 0.99 2.48 0.99 5 2v3c0.99 0.33 1.98 0.66 3 1 1.49 0.99 1.49 0.99 3 2 0.33-1.65 0.66-3.3 1-5 1.46-0.222 2.92-0.427 4.38-0.625 0.812-0.116 1.62-0.232 2.46-0.352 0.714-0.00773 1.43-0.0155 2.16-0.0234 2 2 2 2 2.2 4.82-0.0232 1.09-0.0464 2.18-0.0703 3.3-0.018 1.1-0.0361 2.19-0.0547 3.32-0.0232 0.843-0.0464 1.69-0.0703 2.55h-2l-1 2c2.92 0.25 2.92 0.25 6 0 0.66-0.99 1.32-1.98 2-3 0.99-0.66 1.98-1.32 3-2l-3-3 1-2c-0.66-0.66-1.32-1.32-2-2v-2h2c0.33-0.66 0.66-1.32 1-2l2 2c0.66 0.33 1.32 0.66 2 1 0.33-0.66 0.66-1.32 1-2h-3c0.33-0.66 0.66-1.32 1-2 0.66 0.33 1.32 0.66 2 1 0.33-1.32 0.66-2.64 1-4h3c-2.64-0.99-5.28-1.98-8-3v-3c1.32-0.33 2.64-0.66 4-1v-7h2v-2c5.52 0.491 5.52 0.491 7.81 2.94 0.767 1.33 1.5 2.69 2.19 4.06 2.02 0.652 2.02 0.652 4 1-0.0825-0.763-0.165-1.53-0.25-2.31 0.25-2.69 0.25-2.69 2.19-4.31 0.681-0.454 1.36-0.908 2.06-1.38 0.33-0.99 0.66-1.98 1-3h2c0.33-0.33 0.66-0.66 1-1h3v-5z" fill="#0092FD"/>
<path transform="translate(284,593)" d="m0 0c1.56 1.44 1.56 1.44 3 4-0.0264 2.28-0.331 4.43-0.68 6.69-0.414 2.55-0.414 2.55-0.258 6.12-0.0607 3.1-0.417 4.62-2.06 7.19 0.66 0.33 1.32 0.66 2 1v2h10c0.495 2.48 0.495 2.48 1 5h7v2c1.32 0.33 2.64 0.66 4 1l-1 2c0.897 0.186 0.897 0.186 1.81 0.375 2.19 0.625 2.19 0.625 5.19 2.62h2c0.66-0.99 1.32-1.98 2-3 2.62-0.188 2.62-0.188 5 0 0.33 0.66 0.66 1.32 1 2h-3c0.99 1.98 1.98 3.96 3 6h-2v2c-2.31-0.33-4.62-0.66-7-1 0.165 0.495 0.33 0.99 0.5 1.5 0.707 3.53 0.56 6.9 0.5 10.5h-2c0.495 4.46 0.495 4.46 1 9-1.32-0.33-2.64-0.66-4-1 0.141 1.94 0.288 3.88 0.438 5.81 0.0812 1.08 0.162 2.16 0.246 3.27 0.219 2.98 0.219 2.98 1.32 5.92 0.144 0.928 0.289 1.86 0.438 2.81 0.567 3.21 1.47 6.12 2.56 9.19-0.99 0.495-0.99 0.495-2 1v2h-3l1 8c0.784 0.0825 1.57 0.165 2.38 0.25 2.62 0.75 2.62 0.75 3.81 2.62 0.268 0.701 0.536 1.4 0.812 2.12 0.99 1.49 0.99 1.49 2 3-0.598-0.165-1.2-0.33-1.81-0.5-2.3-0.611-2.3-0.611-5.19-0.5-0.495 1.49-0.495 1.49-1 3h2.69c4.4 1.33 5.26 3.41 7.43 7.29 0.291 0.566 0.583 1.13 0.883 1.71-1.32 0.33-2.64 0.66-4 1 0.66 1.98 1.32 3.96 2 6-0.99 0.33-1.98 0.66-3 1 0.33 0.66 0.66 1.32 1 2h-2v2c0.99-0.33 1.98-0.66 3-1 0.99 0.33 1.98 0.66 3 1v3c0.66 0.33 1.32 0.66 2 1v2c-0.99 0.66-1.98 1.32-3 2 0.619 0.392 1.24 0.784 1.88 1.19 2.12 1.81 2.12 1.81 3.06 4.38 0.351 0.804 0.701 1.61 1.06 2.44 0.825 0.289 1.65 0.578 2.5 0.875 1.24 0.557 1.24 0.557 2.5 1.12 1.31 3.62 1.31 3.62 2 7h-5c0.33 0.99 0.66 1.98 1 3 0.66-0.66 1.32-1.32 2-2v3c0.99 0.33 1.98 0.66 3 1v3c2.31 0.99 4.62 1.98 7 3v4c3.72 0.693 7.21 1.11 11 1 1.12 4.75 1.12 4.75 0 7 0.835 0.186 0.835 0.186 1.69 0.375 0.763 0.206 1.53 0.413 2.31 0.625 0.866 0.186 1.73 0.371 2.62 0.562 2.85 1.73 2.91 2.43 3.69 5.56 0.227 1.28 0.454 2.56 0.688 3.88-2.38 0.125-2.38 0.125-5 0-0.66-0.66-1.32-1.32-2-2-0.33 0.66-0.66 1.32-1 2-1.98-0.99-1.98-0.99-4-2v-2c-0.66-0.66-1.32-1.32-2-2h2c-0.33-0.99-0.66-1.98-1-3h-3c-0.66-0.99-1.32-1.98-2-3-2.76 0.523-5.33 1.11-8 2v3c-0.99 0.33-1.98 0.66-3 1-1.21 2-1.21 2-2 4-0.66-0.33-1.32-0.66-2-1-0.33 0.99-0.66 1.98-1 3h-4c-0.495-3.47-0.495-3.47-1-7-0.66 0.99-1.32 1.98-2 3 0.66 0.33 1.32 0.66 2 1 0.414 2.07 0.414 2.07 0.625 4.56 0.112 1.24 0.112 1.24 0.227 2.5 0.049 0.638 0.098 1.28 0.148 1.93h-4v-2h-4c-0.66 1.32-1.32 2.64-2 4-0.619-0.33-1.24-0.66-1.88-1-2.04-1.14-2.04-1.14-4.12-1v6h3c0.33 0.99 0.66 1.98 1 3-0.681 0.557-1.36 1.11-2.06 1.69-0.639 0.763-1.28 1.53-1.94 2.31 0.14 2.71 0.14 2.71 1 5-1.98 0.33-3.96 0.66-6 1v2h-4v-6h-2c-0.33-0.99-0.66-1.98-1-3-1.24 0.165-2.48 0.33-3.75 0.5-2.83 0.377-5.37 0.5-8.25 0.5v-8h3c-2.56-2.84-4.2-4.37-8-5-0.66-0.33-1.32-0.66-2-1-0.547-1.75-0.547-1.75-0.965-4.01-0.241-1.23-0.241-1.23-0.486-2.49-0.16-0.866-0.321-1.73-0.486-2.62-1.12-6.01-2.43-11.3-5.06-16.9-0.66 0.33-1.32 0.66-2 1-1.52-2.79-2.38-5.25-2.94-8.38-0.758-4.09-1.63-8.13-2.56-12.2-1.36-6.22-2.18-12.4-2.77-18.8-0.321-3.87-0.321-3.87-1.73-7.42-1.45-3.26-1.45-6.54-1.6-10.1-0.0392-0.747-0.0784-1.49-0.119-2.26-0.124-2.38-0.236-4.75-0.346-7.13-0.115-2.39-0.233-4.78-0.357-7.16-0.0763-1.48-0.148-2.97-0.214-4.45 0.113-3.39 0.113-3.39-1.37-6.19-0.0865-1.42-0.107-2.84-0.0977-4.25 0.00322-0.854 0.00645-1.71 0.00977-2.59 0.00838-0.898 0.0168-1.8 0.0254-2.72 0.00451-0.902 0.00902-1.8 0.0137-2.73 0.0118-2.24 0.0283-4.47 0.0488-6.71 1.49-0.495 1.49-0.495 3-1 0.33 8.58 0.66 17.2 1 26 0.171-4.6 0.338-9.21 0.5-13.8 0.024-0.681 0.048-1.36 0.0728-2.06 0.319-9.18 0.539-18.3 0.39-27.5-0.0633-5.22-0.0633-5.22 0.6-7.64 0.608-2.13 0.608-2.13-0.0898-5.04-0.607-5.01 0.128-9.4 0.965-14.3 0.148-0.922 0.295-1.84 0.447-2.79 0.363-2.26 0.735-4.51 1.12-6.77 0.784 0.0412 1.57 0.0825 2.38 0.125 2.79 0.162 2.79 0.162 4.62-2.12 0.458-1.97 0.458-1.97 0.625-4.12 0.124-1.28 0.248-2.56 0.375-3.88h3c0.33 0.99 0.66 1.98 1 3 0.33-0.99 0.66-1.98 1-3h4c-0.33-0.99-0.66-1.98-1-3 0.66-0.99 1.32-1.98 2-3zm-22 121 1 4z" fill="#008FFC"/>
<path transform="translate(1099,553)" d="m0 0h7v4h-4v2c1.65-0.33 3.3-0.66 5-1v4h2v2c1.65 0.33 3.3 0.66 5 1 1 4.88 1 4.88 1 6 0.743 0.0412 1.48 0.0825 2.25 0.125 3.88 1.23 4.83 3.4 6.75 6.88v2h-2c0.33 0.66 0.66 1.32 1 2 2.02 0.652 2.02 0.652 4 1 0.128 5.63 0.128 5.63-0.688 8-0.499 3.19 1.14 5.28 2.69 8 0.99-0.99 1.98-1.98 3-3 0.66 0.66 1.32 1.32 2 2h3c0.638 2.47 1 4.46 1 7-1.88 2.12-1.88 2.12-4 4h-2v-2h-2c0.33 0.99 0.66 1.98 1 3-0.846 0.722-1.69 1.44-2.56 2.19-0.804 0.928-1.61 1.86-2.44 2.81 0.0753 2.63 0.0753 2.63 1 5v3h-8v-3c-2.31-0.66-4.62-1.32-7-2-0.33-1.32-0.66-2.64-1-4-3.46 0.495-3.46 0.495-7 1-0.66-1.32-1.32-2.64-2-4 0.66-0.99 1.32-1.98 2-3 0-2.02-0.595-4.02-1-6h3c-0.33-0.66-0.66-1.32-1-2 0.33-0.66 0.66-1.32 1-2-0.66-0.66-1.32-1.32-2-2 1.25-1.56 1.25-1.56 3-3 2.12 0.375 2.12 0.375 4 1 0.495-0.495 0.495-0.495 1-1v-4c-1.3 0.186-2.6 0.371-3.94 0.562-2.21 0.316-2.21 0.316-4.06 0.438-1-1-1-1-1.06-3.56 0.0206-0.804 0.0412-1.61 0.0625-2.44 1.65-0.33 3.3-0.66 5-1v-2h-2c0.0838-0.771 0.168-1.54 0.254-2.34 0.102-1 0.204-2.01 0.309-3.04 0.104-0.998 0.209-2 0.316-3.02 0.333-2.59 0.333-2.59-0.879-4.6h2c-0.33-0.66-0.66-1.32-1-2h-3c-1.34-0.65-2.68-1.32-4-2h-2c-0.33-1.98-0.66-3.96-1-6 0.99-0.33 1.98-0.66 3-1-0.33-1.32-0.66-2.64-1-4z" fill="#0091FD"/>
<path transform="translate(711,834)" d="m0 0c1.58 0.597 1.58 0.597 3.18 1.21 9.88 3.74 9.88 3.74 19.9 7.14 2.06 0.689 4.06 1.48 6.07 2.28 3.59 1.38 7.06 1.87 10.9 2.38 0.714 0.317 1.43 0.634 2.16 0.961 3.8 1.39 7.51 1.71 11.5 2.1 8.07 0.816 8.07 0.816 10.3 1.94 7.96 1.25 16.1 1.1 24.1 1.12 1.03 0.00459 2.06 0.00918 3.13 0.0139 0.971-0.00201 1.94-0.00403 2.94-0.0061 1.32-0.00169 1.32-0.00169 2.66-0.00342 2.2 0.00858 2.2 0.00858 4.15-1.13 3.99-0.394 8-0.515 12-0.688 1.12-0.0599 2.24-0.12 3.39-0.182 1.6-0.0706 1.6-0.0706 3.23-0.143 0.982-0.046 1.96-0.092 2.98-0.139 2.4 0.151 2.4 0.151 4.4 2.15v3c-3.67 1.18-7.17 1.07-11 1v2h6c-0.66 1.32-1.32 2.64-2 4-1.22-0.165-2.43-0.33-3.69-0.5-4.65-0.623-4.65-0.623-9.31-0.5-0.99 1.49-0.99 1.49-2 3-3.69-1.23-5.35-3.21-8-6 0.495 0.99 0.495 0.99 1 2-3.43 0.775-6.57 1.12-10.1 1.1-0.931-0.00322-1.86-0.00645-2.82-0.00977-0.96-0.00838-1.92-0.0168-2.91-0.0254-0.979-0.00451-1.96-0.00902-2.97-0.0137-2.41-0.0117-4.81-0.0282-7.22-0.0488v3c0.759-0.107 1.52-0.214 2.3-0.324 0.994-0.12 1.99-0.24 3.01-0.363 0.986-0.128 1.97-0.255 2.99-0.387 2.7 0.0742 2.7 0.0742 4.55 1.55 0.378 0.501 0.755 1 1.14 1.52-4.4 2.93-8.77 3.2-14 3-2.79-0.993-4.55-2.25-7-4-1.33-0.68-2.66-1.35-4-2l1-1c-0.66-0.33-1.32-0.66-2-1-0.625-2.06-0.625-2.06-1-4 0.66-0.33 1.32-0.66 2-1-4.29-0.33-8.58-0.66-13-1v-2c-2.97 0.33-5.94 0.66-9 1-0.495 1.49-0.495 1.49-1 3h-5c0.66-0.99 1.32-1.98 2-3-1.14-0.402-1.14-0.402-2.31-0.812-2.61-1.15-3.76-2.17-5.69-4.19-0.99-0.33-1.98-0.66-3-1v-2h-3c0.24 0.603 0.48 1.21 0.727 1.83 0.296 0.799 0.593 1.6 0.898 2.42 0.302 0.789 0.603 1.58 0.914 2.39 0.558 2.86-0.00216 3.95-1.54 6.36-0.33-0.66-0.66-1.32-1-2-1.15-0.33-2.31-0.66-3.5-1-1.15-0.33-2.31-0.66-3.5-1-0.33-0.66-0.66-1.32-1-2-1.9-0.465-1.9-0.465-4.06-0.625-1.3-0.124-2.6-0.247-3.94-0.375-0.33-1.32-0.66-2.64-1-4 3.94-0.179 6.62-0.127 10 2 0.33 0.33 0.66 0.66 1 1v-3h-3c1-2 1-2 3-4-3.93-1.69-7.68-3-12-3-0.33 0.66-0.66 1.32-1 2-0.99 0.33-1.98 0.66-3 1-0.144-0.763-0.289-1.53-0.438-2.31-0.526-2.77-0.526-2.77-1.56-5.69h3v-3z" fill="#0092FD"/>
<path transform="translate(959,354)" d="m0 0c2.97 0.495 2.97 0.495 6 1v2c0.603 0.11 1.21 0.219 1.83 0.332 4.52 0.898 7.57 1.69 11.2 4.67 3.9 1.52 3.9 1.52 8 2v2c1.98 0.33 3.96 0.66 6 1v7c1.83-0.124 1.83-0.124 3.69-0.25 4.34-0.0383 6.03 1.43 9.31 4.25 2.26-0.126 2.26-0.126 4-1 2 3 2 3 2 6 0.99-0.33 1.98-0.66 3-1 0.66 0.33 1.32 0.66 2 1v5c2.64 0.99 5.28 1.98 8 3v3c0.66 0.33 1.32 0.66 2 1-0.33 0.99-0.66 1.98-1 3-3.47 0.495-3.47 0.495-7 1-0.33-0.99-0.66-1.98-1-3h-5v2c-0.638-0.0116-1.28-0.0232-1.93-0.0352-0.826-0.00902-1.65-0.018-2.5-0.0273-0.824-0.0116-1.65-0.0232-2.5-0.0352-2.06-0.135-2.06-0.135-3.07 1.1-2.67 0.141-5.32 0.0425-8 0v-3h3c-0.687-0.471-1.37-0.941-2.08-1.43-0.901-0.623-1.8-1.25-2.73-1.89-0.893-0.615-1.79-1.23-2.71-1.86-3.56-2.62-5.67-4.78-7.48-8.82-1.65 0.33-3.3 0.66-5 1-0.33-0.99-0.66-1.98-1-3h-2v-6c1.65-0.33 3.3-0.66 5-1 0.33-1.65 0.66-3.3 1-5h-2v4h-6c-0.33 0.99-0.66 1.98-1 3h-3c-0.33-1.65-0.66-3.3-1-5h2v-2c-2.97-0.495-2.97-0.495-6-1v-2c-0.763-0.103-1.53-0.206-2.31-0.312-2.86-0.731-3.84-1.46-5.69-3.69 0.99-0.33 1.98-0.66 3-1 0.33-1.98 0.66-3.96 1-6z" fill="#0091FD"/>
<path transform="translate(545,397)" d="m0 0v2c0.66 0.33 1.32 0.66 2 1h-2c0.495 0.495 0.495 0.495 1 1 2.95 2.95 3.09 5.96 4 10h-6c0.206 0.784 0.413 1.57 0.625 2.38 0.124 0.866 0.247 1.73 0.375 2.62-0.66 0.66-1.32 1.32-2 2-0.643 2.07-0.643 2.07-1 4h-4c-0.495 1.49-0.495 1.49-1 3-3.09 2.06-3.71 2.24-7.19 2.12-1.26-0.0412-2.52-0.0825-3.81-0.125 0.33 0.99 0.66 1.98 1 3 0.66 0.33 1.32 0.66 2 1v2c-2.48 0.495-2.48 0.495-5 1v4h-4c0.33 1.65 0.66 3.3 1 5-1.32-0.33-2.64-0.66-4-1h2c-2.14-2.14-3.13-2.43-6-3v2h-2c-0.33 2.64-0.66 5.28-1 8h-2c-0.33-2.31-0.66-4.62-1-7-1.32-0.33-2.64-0.66-4-1v-11c1.49-0.495 1.49-0.495 3-1 0.33-1.98 0.66-3.96 1-6 2.76-0.597 5.16-1 8-1 0.66-0.99 1.32-1.98 2-3-0.776-3.07-0.776-3.07-3-5v-2h5v2c3.11-0.669 3.11-0.669 4.19-3.06 0.268-0.639 0.536-1.28 0.812-1.94h3v-3l-2-1c1.98-0.33 3.96-0.66 6-1 3 3.75 3 3.75 3 6h-2v2c1.32 0.33 2.64 0.66 4 1 0.309-0.928 0.619-1.86 0.938-2.81l2.06-6.19 2-1c-0.495-0.928-0.495-0.928-1-1.88-1-2.12-1-2.12-1-4.12 3.75-1.12 3.75-1.12 6 0z" fill="#0091FD"/>
<path transform="translate(364,339)" d="m0 0c1 3 1 3 0.312 5.62-1.31 2.38-1.31 2.38-3.39 3.02-0.633 0.116-1.27 0.232-1.92 0.352-0.0374 0.626-0.0748 1.25-0.113 1.9-0.0657 0.817-0.131 1.63-0.199 2.48-0.087 1.22-0.087 1.22-0.176 2.46-0.512 2.16-0.512 2.16-3.51 4.16l1 2c-0.34 1.95-0.34 1.95-0.938 4.12-0.195 0.724-0.389 1.45-0.59 2.2-0.156 0.554-0.312 1.11-0.473 1.68-1.65 0.33-3.3 0.66-5 1 0.33 0.33 0.66 0.66 1 1 0.0408 2 0.0425 4 0 6-1.65-0.33-3.3-0.66-5-1 0.248 0.959 0.248 0.959 0.5 1.94 0.5 2.06 0.5 2.06 0.5 3.06h2v2h-3v4h-2l1 6c-1.26 0.0412-2.52 0.0825-3.81 0.125-0.708 0.0232-1.42 0.0464-2.14 0.0703-2.04-0.195-2.04-0.195-5.04-2.2 0.33 0.99 0.66 1.98 1 3 0.342 1.33 0.678 2.66 1 4h-2c0.33 0.99 0.66 1.98 1 3-1.21 1.11-1.21 1.11-2.44 2.25-2.33 2.5-3.2 3.47-3.56 6.75h-2c-1.35 2.98-2.06 5.41-2.5 8.69-0.5 3.31-0.5 3.31-2.5 5.31h-4c-0.33 1.98-0.66 3.96-1 6h-2c-0.121 0.592-0.242 1.18-0.367 1.79-1.82 8.58-1.82 8.58-3.63 12.2-0.99 0.495-0.99 0.495-2 1-0.66-0.99-1.32-1.98-2-3-0.66-0.33-1.32-0.66-2-1 0.402-0.99 0.402-0.99 0.812-2 0.876-2.21 1.7-4.45 2.5-6.69 1.85-4.96 4.27-9.6 6.69-14.3 1.2-2.43 2.4-4.86 3.59-7.29 4.67-9.02 9.84-17.8 14.9-26.6 0.558-0.984 1.12-1.97 1.69-2.98 0.753-1.33 0.753-1.33 1.52-2.68 1.17-2.12 2.28-4.25 3.34-6.42h2c0.227-0.66 0.454-1.32 0.688-2 3.32-7.59 8.51-14.3 13.3-21 0.553-0.773 1.11-1.55 1.68-2.34 0.519-0.712 1.04-1.42 1.57-2.16 0.459-0.629 0.918-1.26 1.39-1.91 1.36-1.59 1.36-1.59 4.36-3.59z" fill="#0090FD"/>
<path transform="translate(1070,591)" d="m0 0h6v2l2 1-2 1v1h3v2h2v6c-1.65 0.33-3.3 0.66-5 1-0.33-1.32-0.66-2.64-1-4l2-1h-4c-0.0427 1.67-0.0406 3.33 0 5 0.33 0.33 0.66 0.66 1 1 0.25 2.94 0.25 2.94 0 6-0.99 0.66-1.98 1.32-3 2h3v2h7v5h-4c0.791 2 0.791 2 2 4 1.48 0.495 1.48 0.495 3 1v8c-3-1-3-1-4-2-0.33 0.99-0.66 1.98-1 3h-2v-6c-3.29-0.8-4.71-1.1-8 0-0.33-1.65-0.66-3.3-1-5h-2c0.33-1.65 0.66-3.3 1-5h-2c-0.124-0.619-0.247-1.24-0.375-1.88-0.497-2.32-0.497-2.32-2.62-4.12-0.75-1.94-0.75-1.94-1-4 0.99-1.49 0.99-1.49 2-3l6 4c-0.66-0.99-1.32-1.98-2-3 0.66-0.66 1.32-1.32 2-2-1.65-0.33-3.3-0.66-5-1v-3h-2c0.33-1.98 0.66-3.96 1-6 3 0 3 0 6 2 0.99-0.66 1.98-1.32 3-2v-4z" fill="#0091FD"/>
<path transform="translate(711,834)" d="m0 0c1.58 0.597 1.58 0.597 3.18 1.21 9.88 3.74 9.88 3.74 19.9 7.14 2.06 0.689 4.06 1.48 6.07 2.28 3.59 1.38 7.06 1.87 10.9 2.38 0.714 0.317 1.43 0.634 2.16 0.961 3.8 1.39 7.51 1.71 11.5 2.1 8.07 0.816 8.07 0.816 10.3 1.94 1.54 0.225 3.08 0.408 4.62 0.562 0.817 0.0838 1.63 0.168 2.48 0.254 0.94 0.0909 0.94 0.0909 1.9 0.184-0.33 0.66-0.66 1.32-1 2-1.23-0.0116-2.46-0.0232-3.73-0.0352-1.63-0.00938-3.27-0.0185-4.9-0.0273-0.808-0.00838-1.62-0.0168-2.45-0.0254-4.43-0.018-8.56 0.192-12.9 1.09v-2c-2.97 0.33-5.94 0.66-9 1-0.495 1.49-0.495 1.49-1 3h-5c0.66-0.99 1.32-1.98 2-3-1.14-0.402-1.14-0.402-2.31-0.812-2.61-1.15-3.76-2.17-5.69-4.19-0.99-0.33-1.98-0.66-3-1v-2h-3c0.24 0.603 0.48 1.21 0.727 1.83 0.296 0.799 0.593 1.6 0.898 2.42 0.302 0.789 0.603 1.58 0.914 2.39 0.558 2.86-0.00216 3.95-1.54 6.36-0.33-0.66-0.66-1.32-1-2-1.15-0.33-2.31-0.66-3.5-1-1.15-0.33-2.31-0.66-3.5-1-0.33-0.66-0.66-1.32-1-2-1.9-0.465-1.9-0.465-4.06-0.625-1.3-0.124-2.6-0.247-3.94-0.375-0.33-1.32-0.66-2.64-1-4 3.94-0.179 6.62-0.127 10 2 0.33 0.33 0.66 0.66 1 1v-3h-3c1-2 1-2 3-4-3.93-1.69-7.68-3-12-3-0.33 0.66-0.66 1.32-1 2-0.99 0.33-1.98 0.66-3 1-0.144-0.763-0.289-1.53-0.438-2.31-0.526-2.77-0.526-2.77-1.56-5.69h3v-3z" fill="#0091FD"/>
<path transform="translate(1051,312)" d="m0 0c2.82-0.293 2.82-0.293 6.12-0.188 1.64 0.0406 1.64 0.0406 3.32 0.082 0.843 0.0348 1.69 0.0696 2.55 0.105 0.33 0.99 0.66 1.98 1 3 0.99-0.66 1.98-1.32 3-2 2.74 0.0314 5.28 0.555 8 1 0.33 1.32 0.66 2.64 1 4 0.804-0.33 1.61-0.66 2.44-1 2.56-1 2.56-1 3.56-1 0.495 2.48 0.495 2.48 1 5 0.536-0.536 1.07-1.07 1.62-1.62 2.38-1.38 2.38-1.38 5.5-1.12 2.88 1.75 2.88 1.75 3.7 3.76 0.869 3.76 1.17 7.12 1.17 11h-2c-0.495-0.99-0.495-0.99-1-2-0.66 0.99-1.32 1.98-2 3l-4-1c-0.268-1.13-0.536-2.27-0.812-3.44-0.588-1.76-0.588-1.76-1.19-3.56-0.99-0.33-1.98-0.66-3-1-0.33 0.99-0.66 1.98-1 3-1.94-0.375-1.94-0.375-4-1-0.33-0.66-0.66-1.32-1-2-2.02-0.652-2.02-0.652-4-1v2c-0.784-0.165-1.57-0.33-2.38-0.5-2.51-0.562-2.51-0.562-4.62-0.5-1.54-0.156-3.08-0.324-4.62-0.5-1.23-0.139-1.23-0.139-2.48-0.281-0.626-0.0722-1.25-0.144-1.9-0.219 0.33-1.65 0.66-3.3 1-5h-2v5h-4c-0.99-1.98-1.98-3.96-3-6 0.33-0.33 0.66-0.66 1-1 0.33-0.66 0.66-1.32 1-2 0.66-0.99 1.32-1.98 2-3z" fill="#0091FD"/>
<path transform="translate(486,216)" d="m0 0h4v7h-4c-0.103 0.639-0.206 1.28-0.312 1.94-0.227 0.681-0.454 1.36-0.688 2.06-3.13 1.04-3.99 0.934-7 0 0.495 2.47 0.495 2.47 1 5-2.64-0.33-5.28-0.66-8-1-0.33 0.99-0.66 1.98-1 3-3.06 1.19-3.06 1.19-6 2v12c-2.64-0.33-5.28-0.66-8-1v4c-0.99 0.66-1.98 1.32-3 2-3.19-0.875-3.19-0.875-6-2 0.66 0.66 1.32 1.32 2 2v3c-0.866 0.248-1.73 0.495-2.62 0.75-3.65 1.35-6.36 2.79-9.38 5.25-0.962 2.63-0.962 2.63-1 5-3 1-3 1-6 0 0.33 0.99 0.66 1.98 1 3-0.66 0.99-1.32 1.98-2 3-0.763-0.165-1.53-0.33-2.31-0.5-2.72-0.591-2.72-0.591-5.69-0.5 2.08-3.91 4.22-6.23 7.75-8.88 3.24-2.49 6.23-4.99 9.06-7.94 2.53-2.63 5.02-4.35 8.19-6.19 1.67-1.66 3.34-3.33 5-5 2.05-1.79 4.1-3.57 6.19-5.31 0.57-0.479 1.14-0.959 1.73-1.45 7.78-6.52 15.7-12.8 23.9-18.7 2.03-1.39 2.03-1.39 3.15-2.57z" fill="#008FFD"/>
<path transform="translate(633,145)" d="m0 0c-1 3-1 3-2.64 4.17-4.39 2.18-7.38 3.06-12.4 2.83-0.99 0.66-1.98 1.32-3 2-1.52 0.217-1.52 0.217-3.06 0.438-0.969 0.186-1.94 0.371-2.94 0.562-0.66 0.99-1.32 1.98-2 3-2.65 0.773-2.65 0.773-5.94 1.38-5.53 1.17-10.2 2.83-15.3 5.3-2.98 1.43-6.01 2.66-9.08 3.89-4.31 1.77-7.9 3.75-11.7 6.44h-2c-0.33 0.66-0.66 1.32-1 2-2.29 0.633-2.29 0.633-5.06 1.12-1.38 0.251-1.38 0.251-2.79 0.508-0.71 0.121-1.42 0.242-2.15 0.367 1.04-3.3 2.04-4.02 5.12-5.75 1.29-0.576 2.58-1.14 3.88-1.69 1.37-0.607 2.73-1.21 4.1-1.82 0.668-0.294 1.34-0.589 2.02-0.892 2.48-1.12 4.9-2.35 7.32-3.6 3.43-1.74 6.85-3.21 10.5-4.48 2.44-0.906 4.81-1.95 7.2-2.98 3.07-1.29 6.2-2.45 9.32-3.61 1.4-0.521 2.8-1.04 4.2-1.56 1.07-0.398 1.07-0.398 2.17-0.805 2.23-0.832 4.46-1.67 6.69-2.51 0.724-0.272 1.45-0.544 2.19-0.825 1.39-0.523 2.78-1.05 4.17-1.57 8.29-3.11 8.29-3.11 12.1-1.92z" fill="#008FFD"/>
<path transform="translate(1246,564)" d="m0 0c1.94 0.375 1.94 0.375 4 1 0.33 0.66 0.66 1.32 1 2 2.32 0.407 4.66 0.744 7 1 0.545 4.08 1 7.87 1 12-0.99 0.33-1.98 0.66-3 1 0.66 0.66 1.32 1.32 2 2-0.577 6.58-0.577 6.58-2 8-1.52 0.0718-3.04 0.0839-4.56 0.0625-0.826-0.00902-1.65-0.018-2.5-0.0273-0.957-0.0174-0.957-0.0174-1.93-0.0352v-6h-2c-2.04-2.91-3-4.4-3-8l-2-1c0.66-1.65 1.32-3.3 2-5 0.33 0.99 0.66 1.98 1 3 2.3 1.14 2.3 1.14 5 2 0.846 0.392 1.69 0.784 2.56 1.19 2.67 0.889 3.84 0.774 6.44-0.188-0.949 0.0206-1.9 0.0412-2.88 0.0625-3.12-0.0625-3.12-0.0625-5.12-1.06v-4c-1.32-0.66-2.64-1.32-4-2 0.33-1.98 0.66-3.96 1-6z" fill="#0091FD"/>
<path transform="translate(1264 844)" d="m0 0c2.38 0.0309 2.38 0.0309 4.81 0.0625v13c-2.47-0.495-2.47-0.495-5-1 0.33 1.32 0.66 2.64 1 4h-2v2c0.66 0.33 1.32 0.66 2 1-4.18 0.0819-7.92-0.0944-12-1h-3v-6l-2-1c0.812-2.44 0.812-2.44 2-5 0.99-0.33 1.98-0.66 3-1 0.495-0.66 0.99-1.32 1.5-2 2.6-3.46 5.67-3.11 9.69-3.06z" fill="#0091FD"/>
<path transform="translate(999,267)" d="m0 0c0.701 0.289 1.4 0.577 2.12 0.875 2.93 1.15 5.88 2.15 8.88 3.12 0.33 1.65 0.66 3.3 1 5 0.99 0.33 1.98 0.66 3 1v4h-6c-0.33 1.32-0.66 2.64-1 4-1.32-0.33-2.64-0.66-4-1v2c-2.31-0.66-4.62-1.32-7-2 0.33-0.99 0.66-1.98 1-3-2.64 0.33-5.28 0.66-8 1-0.454-0.784-0.908-1.57-1.38-2.38-1.51-2.66-1.51-2.66-3.62-4.62 0.99-0.33 1.98-0.66 3-1v-2c2.88-0.188 2.88-0.188 6 0 0.99 1.49 0.99 1.49 2 3h2c-0.66-0.66-1.32-1.32-2-2 3.47-0.495 3.47-0.495 7-1v-3h-2c-0.33 0.66-0.66 1.32-1 2-0.33-0.99-0.66-1.98-1-3 0.33-0.33 0.66-0.66 1-1z" fill="#0091FD"/>
<path transform="translate(1330,555)" d="m0 0h1c0.678 3.66 1.34 7.33 2 11 0.191 1.03 0.382 2.06 0.578 3.12 1.03 5.75 1.53 11.1 1.42 16.9 0.36 2.54 0.36 2.54 0.938 4.81 1.18 5.37 1.67 10.7 2.06 16.2-2.47 0.495-2.47 0.495-5 1-2.27-2.46-2.98-3.66-3.19-7.06 0.0619-0.969 0.124-1.94 0.188-2.94 0-2.36-0.0773-4.66-0.219-7.01-0.0451-0.757-0.0902-1.51-0.137-2.29-0.0477-0.786-0.0954-1.57-0.145-2.38-0.0477-0.797-0.0954-1.59-0.145-2.42-0.118-1.97-0.236-3.93-0.355-5.9h-3c-1.19-2.25-1.19-2.25-2-5 1.25-2.31 1.25-2.31 3-4h2c-0.0116-0.675-0.0232-1.35-0.0352-2.05-0.00902-0.892-0.018-1.78-0.0273-2.7-0.0116-0.882-0.0232-1.76-0.0352-2.67 0.0894-2.36 0.429-4.32 1.1-6.58z" fill="#0092FD"/>
<path transform="translate(1020,305)" d="m0 0h6c-0.155 1.64-0.155 1.64-0.312 3.31 0.103 1.22 0.206 2.43 0.312 3.69 2.77 2.31 5.47 3.35 9 4-0.186 0.619-0.371 1.24-0.562 1.88-0.674 2.17-0.674 2.17 0.562 4.12 2.02 1.13 2.02 1.13 4 2-1.98 0.99-1.98 0.99-4 2v2c-3-1-3-1-6-3-0.33 0.33-0.66 0.66-1 1-4.46 0.311-7.84-0.414-12-2-0.33-2.64-0.66-5.28-1-8 1.32-0.33 2.64-0.66 4-1-0.66-0.99-1.32-1.98-2-3 0.33-0.66 0.66-1.32 1-2l-2-1c1.32-0.33 2.64-0.66 4-1v-3z" fill="#0091FD"/>
<path transform="translate(422,597)" d="m0 0c2.74 1.21 5.37 2.57 8 4v5h-3v6h-3v2h-5l-1-2v4h-8c1.32-0.99 2.64-1.98 4-3-1.32-0.66-2.64-1.32-4-2l1-2h2c-0.33-0.99-0.66-1.98-1-3l1-2h-2v-2h2c0.124-0.804 0.248-1.61 0.375-2.44 0.206-0.846 0.413-1.69 0.625-2.56 2.99-1.5 4.76-0.78 8 0z" fill="#0091FD"/>
<path transform="translate(416,841)" d="m0 0c0.66 0.33 1.32 0.66 2 1v2h4c1.75 2 1.75 2 3 4-0.66 0.66-1.32 1.32-2 2-0.33 0.99-0.66 1.98-1 3h-2c0.66 0.577 1.32 1.15 2 1.75 2 2.25 2 2.25 2 6.25-1.88 0.625-1.88 0.625-4 1-0.66-0.66-1.32-1.32-2-2 0.33 1.32 0.66 2.64 1 4-3.96 0.495-3.96 0.495-8 1 0 2.64 0.351 4.49 1 7v2h-7v-9h3c0.33-1.98 0.66-3.96 1-6 1.65-0.33 3.3-0.66 5-1-0.66-0.33-1.32-0.66-2-1v-4c-0.613-1.69-1.27-3.36-2-5h4c-0.33-1.32-0.66-2.64-1-4 0.99-0.33 1.98-0.66 3-1v-2z" fill="#0091FD"/>
<path transform="translate(1250,415)" d="m0 0c0.33 0.66 0.66 1.32 1 2 2.02 1.13 2.02 1.13 4 2v5c2.64 0.99 5.28 1.98 8 3v8c-1.98 0.99-1.98 0.99-4 2-0.33-0.99-0.66-1.98-1-3-0.289 0.639-0.578 1.28-0.875 1.94-1.12 2.06-1.12 2.06-3.12 3.06v-2c-2.31-0.33-4.62-0.66-7-1 0.33 0.99 0.66 1.98 1 3-0.66 0.66-1.32 1.32-2 2-0.33 0.66-0.66 1.32-1 2-0.66-0.33-1.32-0.66-2-1-0.407-2.32-0.744-4.66-1-7 0.66-0.33 1.32-0.66 2-1v-7h2v3h2c-0.33 0.99-0.66 1.98-1 3h3c-0.33-0.33-0.66-0.66-1-1-0.0406-1.67-0.0427-3.33 0-5h-2v-2h3c-0.371-0.908-0.743-1.81-1.12-2.75-0.875-3.25-0.875-3.25 0-5.62 0.371-0.536 0.743-1.07 1.12-1.62z" fill="#0092FD"/>
<path transform="translate(737,844)" d="m0 0c3.08 0.391 3.08 0.391 6.81 1.25 1.22 0.273 2.45 0.547 3.71 0.828 3.48 0.922 3.48 0.922 5.89 1.96 3.69 1.36 7.38 1.64 11.3 2.02 8.07 0.816 8.07 0.816 10.3 1.94 1.54 0.225 3.08 0.408 4.62 0.562 0.817 0.0838 1.63 0.168 2.48 0.254 0.626 0.0606 1.25 0.121 1.9 0.184-0.33 0.66-0.66 1.32-1 2-1.23-0.0116-2.46-0.0232-3.73-0.0352-1.63-0.00938-3.27-0.0185-4.9-0.0273-0.808-0.00838-1.62-0.0168-2.45-0.0254-4.43-0.018-8.56 0.192-12.9 1.09v-2c-4.46 0.495-4.46 0.495-9 1-0.33 0.99-0.66 1.98-1 3h-5c0.66-0.99 1.32-1.98 2-3-0.763-0.268-1.53-0.536-2.31-0.812-2.61-1.15-3.76-2.17-5.69-4.19-0.99-0.33-1.98-0.66-3-1 0-3 0-3 2-5z" fill="#0090FB"/>
<path transform="translate(908,321)" d="m0 0c3.81 0.672 7.35 1.73 11 3v3c0.99 0.33 1.98 0.66 3 1 1.02 0.979 2.02 1.98 3 3l2 1v4h-6c0.33 2.97 0.66 5.94 1 9-0.33-0.66-0.66-1.32-1-2-1.98-0.727-3.98-1.4-6-2v-4c-1.32-0.33-2.64-0.66-4-1v-3c-1.32-0.66-2.64-1.32-4-2 0.33-3.3 0.66-6.6 1-10z" fill="#0091FD"/>
<path transform="translate(589,588)" d="m0 0h3c-0.254 1.08-0.508 2.17-0.77 3.29-3.5 15.8-4.88 31.6-6.23 47.7h-3v-2h-2v2h-2v-19c0.66-0.33 1.32-0.66 2-1 0.33 2.31 0.66 4.62 1 7h2c-0.0116-0.811-0.0232-1.62-0.0352-2.46-0.0591-7.25 0.227-14.3 1.04-21.5h2c-0.33-0.557-0.66-1.11-1-1.69-1.13-2.62-1.16-4.49-1-7.31h4c0.33-1.65 0.66-3.3 1-5z" fill="#0092FD"/>
<path transform="translate(563,446)" d="m0 0c5.53-0.194 9.66 0.387 15 2 2.79 0.169 2.79 0.169 5 0 1.6 3.2 0.0317 5.72-1 9h-4c-0.33 0.99-0.66 1.98-1 3-1.65-0.33-3.3-0.66-5-1v-4h3c-1.32-0.33-2.64-0.66-4-1v8c-1.32 0.33-2.64 0.66-4 1-0.506-1.44-1-2.87-1.5-4.31-0.278-0.801-0.557-1.6-0.844-2.43-0.656-2.26-0.656-2.26-0.656-5.26-0.66-0.99-1.32-1.98-2-3 0.33-0.66 0.66-1.32 1-2z" fill="#0091FD"/>
<path transform="translate(940,339)" d="m0 0c1.63 0.087 3.25 0.195 4.88 0.312 0.905 0.058 1.81 0.116 2.74 0.176 2.38 0.512 2.38 0.512 4.38 3.51 0.125 3.19 0.125 3.19 0 6-0.639 0.124-1.28 0.248-1.94 0.375-0.681 0.206-1.36 0.413-2.06 0.625-0.33 0.66-0.66 1.32-1 2 0.928-0.186 1.86-0.371 2.81-0.562 3.19-0.438 3.19-0.438 6.19 0.562-0.33 1.32-0.66 2.64-1 4-2.97 0.33-5.94 0.66-9 1v-2l2-1c-0.638-0.133-1.28-0.266-1.93-0.402-0.826-0.177-1.65-0.353-2.5-0.535-0.824-0.174-1.65-0.348-2.5-0.527-2.07-0.535-2.07-0.535-3.07-1.54-0.168-1.96-0.168-1.96-0.188-4.38-0.0142-0.791-0.0284-1.58-0.043-2.4 0.23-2.23 0.23-2.23 2.23-5.23z" fill="#0091FD"/>
<path transform="translate(770,1464)" d="m0 0c0.232 0.643 0.464 1.29 0.703 1.95 1.11 2.25 1.11 2.25 3.47 2.7 4.79 0.312 9.11 0.473 13.8-0.645 1.17 3.98 2.26 7.92 3 12-8.11-0.45-14.3-3.53-21-8-1.33-5.33-1.33-5.33 0-8z" fill="#0093FD"/>
<path transform="translate(477,378)" d="m0 0h7c0.33 1.32 0.66 2.64 1 4-1.32 0.33-2.64 0.66-4 1 1.32 0.33 2.64 0.66 4 1v2h-3c0.66 2.97 1.32 5.94 2 9-2.31 0.33-4.62 0.66-7 1-2.57-3.01-3.52-5.36-4.19-9.25-0.159-0.892-0.317-1.78-0.48-2.7-0.11-0.675-0.219-1.35-0.332-2.05 0.66-0.33 1.32-0.66 2-1 0.99 0.33 1.98 0.66 3 1v-4z" fill="#0192FD"/>
<path transform="translate(759,854)" d="m0 0v2h2c0.66 3.63 1.32 7.26 2 11-7.88-0.875-7.88-0.875-9-2-2-0.0408-4-0.0425-6 0 0-3.65 0.85-6.55 2-10 2.96-1.48 5.74-1.06 9-1z" fill="#0090FD"/>
<path transform="translate(641,424)" d="m0 0c0.33 2.31 0.66 4.62 1 7h2v2c3.02-0.588 6.02-1.23 9-2 0.33 1.32 0.66 2.64 1 4h-3c0.33 0.99 0.66 1.98 1 3-1.32 0.33-2.64 0.66-4 1v-2c-5.45 0.495-5.45 0.495-11 1 0.66-1.32 1.32-2.64 2-4-2.64-0.99-5.28-1.98-8-3v-1h5v-2h-6c0.33-0.99 0.66-1.98 1-3 7.75-1 7.75-1 10-1z" fill="#0094FE"/>
<path transform="translate(690,128)" d="m0 0 6 3v2c-1.98 0.33-3.96 0.66-6 1-0.33 0.99-0.66 1.98-1 3h-2c-1.76 0.0309-1.76 0.0309-3.56 0.0625-3.44-0.0625-3.44-0.0625-4.44-1.06-2.18-0.235-4.37-0.414-6.56-0.562-1.2-0.0838-2.4-0.168-3.63-0.254-0.927-0.0606-1.85-0.121-2.81-0.184 2.24-2.6 3.74-3.43 7.12-3.91 0.789-0.121 1.58-0.242 2.39-0.367 1.23-0.17 1.23-0.17 2.48-0.344 1.63-0.24 3.25-0.482 4.88-0.727 0.719-0.101 1.44-0.203 2.18-0.307 2.15-0.328 2.15-0.328 4.95-1.34z" fill="#0090F9"/>
<path transform="translate(733,427)" d="m0 0c0.784 0.804 1.57 1.61 2.38 2.44 2.34 2.55 2.34 2.55 4.62 3.56v2c-3.22 0.996-6.43 1.99-9.66 2.97-1.88 0.581-3.76 1.17-5.62 1.81-2.82 0.941-4.3 1.37-7.16 0.344-0.516-0.371-1.03-0.743-1.56-1.12 0.33-0.99 0.66-1.98 1-3 0.99-0.33 1.98-0.66 3-1 0.33-0.66 0.66-1.32 1-2 1.78-0.668 1.78-0.668 3.94-1.19 0.71-0.179 1.42-0.358 2.15-0.543 1.91-0.27 1.91-0.27 3.91 0.73-0.33-0.99-0.66-1.98-1-3 0.99-0.66 1.98-1.32 3-2z" fill="#0095FC"/>
<path transform="translate(962,142)" d="m0 0c7.74 1.29 14.8 4.07 22 7v2c-2.64 0.66-5.28 1.32-8 2 0.33 0.99 0.66 1.98 1 3-4.97-1.27-7.67-3.09-11-7v-2h-2c-1.62-2-1.62-2-3-4 0.33-0.33 0.66-0.66 1-1z" fill="#008FFD"/>
<path transform="translate(450,873)" d="m0 0h7v3h3c2.19 1.56 2.19 1.56 4 4 0.25 3.75 0.25 3.75 0 7-1.67-0.304-3.34-0.646-5-1-1.2-0.206-2.39-0.413-3.62-0.625-3.38-1.38-3.38-1.38-5.38-4.75-1.29-4.69-1.29-4.69 0-7.62z" fill="#0091FD"/>
<path transform="translate(1009,589)" d="m0 0c5.76 4.43 5.76 4.43 6.32 8.07 1.54 15.6 1.54 15.6-1.32 19.9-0.289-1.11-0.577-2.23-0.875-3.38-0.817-3.63-0.817-3.63-3.12-5.62-0.633-2.86-0.633-2.86-1.12-6.31-0.168-1.13-0.335-2.26-0.508-3.43-0.316-2.8-0.521-5.45-0.367-8.26l1-1z" fill="#0094FD"/>
<path transform="translate(604 783)" d="m0 0c3.44 0.875 3.44 0.875 4.88 2.94 0.278 0.959 0.278 0.959 0.562 1.94l-2 2c-3.62-0.375-3.62-0.375-7-1 0.33 0.66 0.66 1.32 1 2 0.0397 1.67 0.0438 3.33 0 5h3c0.124 0.619 0.247 1.24 0.375 1.88 0.497 2.32 0.497 2.32 2.62 4.12-0.99 0.99-1.98 1.98-3 3v-2c-1.98 0.33-3.96 0.66-6 1-1-3.13-0.853-4.87 0-8 0.0379-1.67 0.0463-3.33 0-5-0.99-0.33-1.98-0.66-3-1 0.99-0.33 1.98-0.66 3-1-0.33-1.32-0.66-2.64-1-4 3-2 3-2 6.56-1.88z" fill="#0094FE"/>
<path transform="translate(1090,636)" d="m0 0c0.195 6.05 0.195 6.05 0 8-0.66 0.66-1.32 1.32-2 2 0.33 0.577 0.66 1.15 1 1.75 1 2.25 1 2.25 1 6.25h-6c-1.89-6.25-2-11.5-2-18 3.05-0.981 4.95-0.981 8 0z" fill="#0091FD"/>
<path transform="translate(774 1200)" d="m0 0c1.09 0.292 1.09 0.292 2.2 0.59 0.554 0.156 1.11 0.312 1.68 0.473 0.33-0.66 0.66-1.32 1-2 0.66 1.65 1.32 3.3 2 5h-3v5c2.31 0.33 4.62 0.66 7 1l-3 3c-2.31-0.66-4.62-1.32-7-2v-2c-0.99 0.33-1.98 0.66-3 1-3-3.75-3-3.75-3-6-0.66-0.33-1.32-0.66-2-1h3v-2c-0.66-0.33-1.32-0.66-2-1 2.55-1.27 3.43-0.802 6.12-0.0625z" fill="#0094FE"/>
<path transform="translate(898,1264)" d="m0 0h4c1.06 1.88 1.06 1.88 2 4l-1 2h-5c0.342 2.97 0.342 2.97 1 6 0.66 0.33 1.32 0.66 2 1-0.33 1.32-0.66 2.64-1 4-0.33-0.66-0.66-1.32-1-2-1.32 0.99-2.64 1.98-4 3 0.33-1.65 0.66-3.3 1-5-1.32 0.99-2.64 1.98-4 3-0.66-0.33-1.32-0.66-2-1v-2h2c0.33-0.99 0.66-1.98 1-3 0.33-0.99 0.66-1.98 1-3-0.66-0.33-1.32-0.66-2-1v-2c1.65-0.33 3.3-0.66 5-1 0.33-0.99 0.66-1.98 1-3z" fill="#0094FE"/>
<path transform="translate(1052,431)" d="m0 0c8.16-0.616 8.16-0.616 11.1 1.56 1.22 3.39 0.61 5.96-0.125 9.44-3 1-3 1-5.04 0.25-2.21-1.29-4.11-2.47-5.96-4.25-0.5-3.81-0.5-3.81 0-7z" fill="#0192FD"/>
<path transform="translate(450 493)" d="m0 0c0.681 0.371 1.36 0.743 2.06 1.12 0.681 0.144 1.36 0.289 2.06 0.438 2.34 0.68 3.36 1.74 4.94 3.56-0.33 0.99-0.66 1.98-1 3-3.92 1.31-6.86 1.2-11 1-2-2-2-2-2.12-5.62 0.0412-1.11 0.0825-2.23 0.125-3.38 3-1 3-1 4.94-0.125z" fill="#0091FD"/>
<path transform="translate(1076,919)" d="m0 0c0.125 3.5 0.125 3.5 0 7 0.33 0.66 0.66 1.32 1 2 2.53 0.656 2.53 0.656 5 1v2c-5.62 0.25-5.62 0.25-9-2-1.99-0.39-3.99-0.732-6-1v-3h2c-0.278-1.18-0.278-1.18-0.562-2.38-0.438-2.62-0.438-2.62 0.562-4.62 3.42-1.37 3.74-1.17 7 1z" fill="#0192FD"/>
<path transform="translate(505,785)" d="m0 0c2 3 2 3 2 6h3c0.33 1.98 0.66 3.96 1 6h-12c0-3.61 0.0309-5.73 1-9 0.639-0.124 1.28-0.247 1.94-0.375 1.02-0.309 1.02-0.309 2.06-0.625l1-2z" fill="#0192FD"/>
<path transform="translate(861 1342)" d="m0 0c3 0.125 3 0.125 4 1.12 0.0406 1.67 0.0427 3.33 0 5h2c0.33 1.98 0.66 3.96 1 6-2.61 0.931-3.64 1.15-6.25 0.0625-0.577-0.351-1.15-0.701-1.75-1.06v-5c-1.32-0.33-2.64-0.66-4-1h2c-0.278-0.959-0.278-0.959-0.562-1.94-0.217-1.02-0.217-1.02-0.438-2.06 1-1 1-1 4-1.12z" fill="#0094FE"/>
<path transform="translate(1061,769)" d="m0 0c0.959 0.278 0.959 0.278 1.94 0.562 1.02 0.217 1.02 0.217 2.06 0.438 0.33-0.33 0.66-0.66 1-1 3.44-0.25 3.44-0.25 7 0 0.66 0.99 1.32 1.98 2 3-0.75 1.94-0.75 1.94-2 4-2.12 0.75-2.12 0.75-4 1-0.33 1.98-0.66 3.96-1 6l-2-1c-0.124-1.13-0.247-2.27-0.375-3.44-0.206-1.18-0.412-2.35-0.625-3.56-1.94-1.51-1.94-1.51-4-2v-4z" fill="#0094FE"/>
<path transform="translate(667,1181)" d="m0 0c0.557 0.681 0.557 0.681 1.12 1.38 1.89 1.86 1.89 1.86 5 2.56 0.949 0.351 1.9 0.701 2.88 1.06 0.875 2.12 0.875 2.12 1 4 2.31 0.33 4.62 0.66 7 1 0.33 1.32 0.66 2.64 1 4-1.32-0.33-2.64-0.66-4-1v-1c-4.29-0.33-8.58-0.66-13-1v-5c-0.99 0.33-1.98 0.66-3 1-0.66-0.33-1.32-0.66-2-1l1-2h3v-4z" fill="#0094FE"/>
<path transform="translate(908,298)" d="m0 0c5.43-0.362 5.43-0.362 7.88 1.19 1.47 2.37 1.35 4.07 1.12 6.81 2.48 0.99 2.48 0.99 5 2-0.33 0.99-0.66 1.98-1 3h-7c-0.124-0.928-0.124-0.928-0.25-1.88-0.371-1.05-0.371-1.05-0.75-2.12-0.66-0.268-1.32-0.536-2-0.812-0.66-0.392-1.32-0.784-2-1.19-0.75-3.62-0.75-3.62-1-7z" fill="#0091FD"/>
<path transform="translate(303,479)" d="m0 0c1.5 1.12 1.5 1.12 3 3 0.188 3.19 0.188 3.19 0 6-1.98 0.99-1.98 0.99-4 2 0.99 0.33 1.98 0.66 3 1h-5c-0.33-0.66-0.66-1.32-1-2-0.33 0.99-0.66 1.98-1 3-0.99-0.33-1.98-0.66-3-1-0.33 0.66-0.66 1.32-1 2-0.33-1.98-0.66-3.96-1-6 2.31 0.33 4.62 0.66 7 1v-2c-0.66-0.33-1.32-0.66-2-1v-3c0.639-0.309 1.28-0.619 1.94-0.938 2-0.897 2-0.897 3.06-2.06z" fill="#0095FC"/>
<path transform="translate(711,834)" d="m0 0c1.65 0.59 3.3 1.2 4.94 1.81 1.37 0.505 1.37 0.505 2.78 1.02 2.29 1.17 2.29 1.17 3.29 4.17 0.99 0.33 1.98 0.66 3 1-0.33 0.66-0.66 1.32-1 2-0.536-0.33-1.07-0.66-1.62-1-2.91-1.23-5.24-1.14-8.38-1-0.33 0.66-0.66 1.32-1 2-0.99 0.33-1.98 0.66-3 1-0.144-0.763-0.289-1.53-0.438-2.31-0.526-2.77-0.526-2.77-1.56-5.69h3v-3z" fill="#0090F9"/>
<path transform="translate(1337,702)" d="m0 0h1c-1.4 24.2-1.4 24.2-5 35h-1c-0.0274-1.4-0.0466-2.79-0.0625-4.19-0.0116-0.777-0.0232-1.55-0.0352-2.36 0.0977-2.46 0.0977-2.46 0.609-4.78 0.861-4.72 0.39-9.5 0.23-14.3 0.258-3.4 0.258-3.4 1.7-5.17 0.77-0.607 0.77-0.607 1.55-1.23 0.33-0.99 0.66-1.98 1-3z" fill="#0092FD"/>
<path transform="translate(1021,941)" d="m0 0c0.639 0.474 1.28 0.949 1.94 1.44 3.98 2.03 7.65 2.28 12.1 2.56l-2 1c0.186 0.742 0.371 1.49 0.562 2.25 0.43 2.7 0.289 4.2-0.562 6.75 0.99 0.33 1.98 0.66 3 1-1.65-0.33-3.3-0.66-5-1-0.33-0.99-0.66-1.98-1-3-1.98-1.03-3.98-2.03-6-3-2.6-2.06-3.56-3.7-4-7l1-1z" fill="#0094FE"/>
<path transform="translate(1072,502)" d="m0 0c3.56 0.61 6.68 1.58 10 3v7h3c0.33 1.32 0.66 2.64 1 4-1.98 0.33-3.96 0.66-6 1-1.86-3.13-2.2-5.37-2-9h-5c0.33-0.99 0.66-1.98 1-3-0.99-0.33-1.98-0.66-3-1 0.33-0.66 0.66-1.32 1-2z" fill="#0094FE"/>
<path transform="translate(589,964)" d="m0 0c3.01 0.389 4.4 1.26 7 3 0.33-0.66 0.66-1.32 1-2 0.33 1.98 0.66 3.96 1 6h5v4c0.66 0.33 1.32 0.66 2 1-1 1-1 1-3.5 1.1-1.51-0.0174-1.51-0.0174-3.06-0.0352-1.01-0.00902-2.02-0.018-3.07-0.0273-1.17-0.0174-1.17-0.0174-2.37-0.0352 0.375-1.94 0.375-1.94 1-4 0.66-0.33 1.32-0.66 2-1v-2c-1.65-0.33-3.3-0.66-5-1v-2c-1.32-0.33-2.64-0.66-4-1l2-2z" fill="#0094FE"/>
<path transform="translate(832,853)" d="m0 0v1c-3.68 0.831-7.19 1.18-11 1.32-1.11 0.0419-2.22 0.0838-3.37 0.127-1.15 0.0393-2.3 0.0786-3.49 0.119-1.17 0.0432-2.34 0.0864-3.54 0.131-2.88 0.106-5.76 0.208-8.64 0.307 0.33-0.99 0.66-1.98 1-3 1.11 0.0206 2.23 0.0412 3.38 0.0625 3.46 0.201 3.46 0.201 5.62-1.06 2.44-0.286 4.86-0.512 7.31-0.688 0.997-0.0899 0.997-0.0899 2.01-0.182 4.1-0.296 7 0.0129 10.7 1.87z" fill="#008FFD"/>
<path transform="translate(1020,926)" d="m0 0h6c0.33 0.99 0.66 1.98 1 3-0.33 0.66-0.66 1.32-1 2 2.72 2.31 2.72 2.31 5.19 1.62 0.598-0.206 1.2-0.413 1.81-0.625 1.12 4.75 1.12 4.75 0 7 0.99 0.33 1.98 0.66 3 1h-7v-2c-0.99-0.66-1.98-1.32-3-2-0.33-0.66-0.66-1.32-1-2-2.02-0.652-2.02-0.652-4-1 0.206-0.784 0.413-1.57 0.625-2.38 0.124-0.866 0.247-1.73 0.375-2.62l-2-2z" fill="#0094FE"/>
<path transform="translate(264,721)" d="m0 0c3 1 3 1 4 3 0.421 2.63 0.794 5.24 1.12 7.88 0.0993 0.721 0.199 1.44 0.301 2.18 0.449 3.53 0.833 6.56-0.426 9.94-0.712-0.959-0.712-0.959-1.44-1.94-1.4-1.95-1.4-1.95-2.56-3.06-0.987-6.03-1.11-11.9-1-18z" fill="#0093FD"/>
<path transform="translate(720,364)" d="m0 0h9c1.26 2.91 2 4.8 2 8-1.46 0.222-2.92 0.427-4.38 0.625-0.812 0.116-1.62 0.232-2.46 0.352-0.714 0.00773-1.43 0.0155-2.16 0.0234-2-2-2-2-2.12-5.62 0.0412-1.11 0.0825-2.23 0.125-3.38z" fill="#0091FD"/>
<path transform="translate(665,418)" d="m0 0c-0.516 0.371-1.03 0.743-1.56 1.12-1.8 1.91-1.8 1.91-1.12 5.06 0.34 1.39 0.34 1.39 0.688 2.81-3.3 0.33-6.6 0.66-10 1v-2h2v-3l-2-1c3-2 3-2 5-3-0.66-0.66-1.32-1.32-2-2 3.2-1.6 5.72-0.0317 9 1z" fill="#0094FE"/>
<path transform="translate(982,1096)" d="m0 0c1.32 0.66 2.64 1.32 4 2-0.33 0.66-0.66 1.32-1 2h5c-0.66 0.66-1.32 1.32-2 2-0.99-0.33-1.98-0.66-3-1 0.33 1.65 0.66 3.3 1 5l-1-2v4h-2c-0.33 0.99-0.66 1.98-1 3-0.33-0.66-0.66-1.32-1-2-3.28-0.47-3.28-0.47-7.06-0.625-1.94-0.112-1.94-0.112-3.91-0.227-1.5-0.0735-1.5-0.0735-3.03-0.148v-5h3c0.33 0.99 0.66 1.98 1 3l1-2c0.835 0.495 0.835 0.495 1.69 1 2.62 1.13 4.49 1.16 7.31 1 0.33-1.65 0.66-3.3 1-5h2v-3h-2v-2z" fill="#0094FE"/>
<path transform="translate(1225,510)" d="m0 0h6c0.33 0.66 0.66 1.32 1 2 0.99 0.33 1.98 0.66 3 1-0.33 2.64-0.66 5.28-1 8-0.33-0.66-0.66-1.32-1-2-1.9-0.465-1.9-0.465-4.06-0.625-1.3-0.124-2.6-0.247-3.94-0.375v-8z" fill="#0192FD"/>
<path transform="translate(1092,657)" d="m0 0v3h3v2l2 1c-0.33 0.99-0.66 1.98-1 3-0.495-0.165-0.99-0.33-1.5-0.5-3.53-0.707-6.9-0.56-10.5-0.5-0.33-0.66-0.66-1.32-1-2h2c0.33-1.65 0.66-3.3 1-5 2.08-0.553 3.84-1 6-1z" fill="#0192FD"/>
<path transform="translate(1061,1122)" d="m0 0c0.66 0.33 1.32 0.66 2 1 0.625 2.56 0.625 2.56 1 5-0.99 0.495-0.99 0.495-2 1-0.99-0.33-1.98-0.66-3-1v5h-6v-4h-3v-2c5.75-1.12 5.75-1.12 8 0v-4c0.99-0.33 1.98-0.66 3-1z" fill="#0094FE"/>
<path transform="translate(766,373)" d="m0 0h8v3h3v7h-3c-0.33-0.66-0.66-1.32-1-2-0.99-0.33-1.98-0.66-3-1-0.33-0.66-0.66-1.32-1-2h-3v-5z" fill="#0091FD"/>
<path transform="translate(786,1252)" d="m0 0h6c-1.49 1.98-1.49 1.98-3 4 5.48 1.58 5.48 1.58 11 3v3h-2v-2l-4 2v-3c-1.32 0.33-2.64 0.66-4 1-0.33 1.32-0.66 2.64-1 4v-2c-0.99 0.33-1.98 0.66-3 1v-11z" fill="#0094FE"/>
<path transform="translate(1099,456)" d="m0 0h6c0.144 0.743 0.289 1.49 0.438 2.25 0.464 2.27 0.981 4.51 1.56 6.75 0.66-0.33 1.32-0.66 2-1v3h-4v-2h-5c-0.911-3.07-1.09-5.8-1-9z" fill="#0091FD"/>
<path transform="translate(1019,265)" d="m0 0h4c0.124 0.639 0.247 1.28 0.375 1.94 0.309 1.02 0.309 1.02 0.625 2.06 0.66 0.33 1.32 0.66 2 1-0.33 1.65-0.66 3.3-1 5-2.81 0.25-2.81 0.25-6 0-1.88-1.81-1.88-1.81-3-4v-3c2.48 0.495 2.48 0.495 5 1-0.66-1.32-1.32-2.64-2-4z" fill="#0091FD"/>
<path transform="translate(551,907)" d="m0 0c1.09 0.186 2.19 0.371 3.31 0.562 3.62 0.695 3.62 0.695 6.69-0.562 0.33 1.32 0.66 2.64 1 4h5c-0.33 0.66-0.66 1.32-1 2-1.65-0.33-3.3-0.66-5-1 0.33 2.31 0.66 4.62 1 7-0.66-0.33-1.32-0.66-2-1v-2c-0.66-0.33-1.32-0.66-2-1 0.33-0.66 0.66-1.32 1-2-0.949 0.0206-1.9 0.0412-2.88 0.0625-3.12-0.0625-3.12-0.0625-5.12-1.06v-5z" fill="#0094FE"/>
<path transform="translate(907,1147)" d="m0 0c0.66 1.32 1.32 2.64 2 4h2c-0.33-0.99-0.66-1.98-1-3h3c0.33 2.31 0.66 4.62 1 7 1.92-0.0619 1.92-0.0619 3.88-0.125 2.18-0.0703 2.18-0.0703 4.12 0.125 2 2 2 2 2 5-0.99 0.33-1.98 0.66-3 1-0.33-1.65-0.66-3.3-1-5h-9v-3c-2.97-0.495-2.97-0.495-6-1 1-3 1-3 2-5z" fill="#0094FE"/>
<path transform="translate(1117,827)" d="m0 0c2 2 2 2 2.12 4.62-0.0412 0.784-0.0825 1.57-0.125 2.38-1.65-0.33-3.3-0.66-5-1-0.33 0.66-0.66 1.32-1 2h-3c-0.33-2.31-0.66-4.62-1-7 2.76-1.38 4.95-1.19 8-1z" fill="#0091FD"/>
<path transform="translate(429,817)" d="m0 0c0.99 0.66 1.98 1.32 3 2 0.125 2.56 0.125 2.56 0 5 0.33 0.33 0.66 0.66 1 1 0.0406 1.67 0.0427 3.33 0 5-2.38-0.25-2.38-0.25-5-1-1.19-1.94-1.19-1.94-2-4-0.66-0.66-1.32-1.32-2-2 0.99-0.66 1.98-1.32 3-2v-3c0.66-0.33 1.32-0.66 2-1z" fill="#0091FD"/>
<path transform="translate(891,325)" d="m0 0h7c0.625 2.81 0.625 2.81 1 6-0.99 1.49-0.99 1.49-2 3-3.38-1.19-5.65-2.28-8-5h2v-4z" fill="#0091FD"/>
<path transform="translate(1052,682)" d="m0 0c2 0 2 0 4.12 1.81 1.88 2.19 1.88 2.19 1.88 5.19h-2c-0.33 0.99-0.66 1.98-1 3-4.75-0.75-4.75-0.75-7-3 0.66-0.969 1.32-1.94 2-2.94 2.09-2.59 2.09-2.59 2-4.06z" fill="#0091FD"/>
<path transform="translate(1219,489)" d="m0 0h6c0.144 0.598 0.289 1.2 0.438 1.81 0.45 1.75 0.991 3.47 1.56 5.19-0.938 2.12-0.938 2.12-2 4v1l-4 1c-1-7.62-1-7.62-1-11-0.33-0.66-0.66-1.32-1-2z" fill="#0192FD"/>
<path transform="translate(1268,422)" d="m0 0c2.47 0.99 2.47 0.99 5 2v2h2c-0.33 1.65-0.66 3.3-1 5-2.64-0.33-5.28-0.66-8-1-0.688-2.31-0.688-2.31-1-5 1.44-1.81 1.44-1.81 3-3z" fill="#0192FD"/>
<path transform="translate(1223,871)" d="m0 0c2 2 2 2 2.2 4.16-0.0232 0.812-0.0464 1.62-0.0703 2.46-0.018 0.817-0.0361 1.63-0.0547 2.48-0.0348 0.94-0.0348 0.94-0.0703 1.9l-3-3c-0.33 0.99-0.66 1.98-1 3-0.99-0.33-1.98-0.66-3-1-1.12-5.62-1.12-5.62 0-9 2.38-0.625 2.38-0.625 5-1z" fill="#0091FD"/>
<path transform="translate(764,850)" d="m0 0c1.46 0.141 2.92 0.288 4.38 0.438 1.22 0.122 1.22 0.122 2.46 0.246 2.16 0.316 2.16 0.316 4.16 1.32 1.54 0.225 3.08 0.408 4.62 0.562 0.817 0.0838 1.63 0.168 2.48 0.254 0.626 0.0606 1.25 0.121 1.9 0.184-0.33 0.66-0.66 1.32-1 2-6.27-0.33-12.5-0.66-19-1-0.33-0.66-0.66-1.32-1-2 0.33-0.66 0.66-1.32 1-2z" fill="#008DF8"/>
<path transform="translate(544,515)" d="m0 0c0.33 0.66 0.66 1.32 1 2 1.98-0.33 3.96-0.66 6-1-0.875 6.88-0.875 6.88-2 8-2.5 0.125-2.5 0.125-5 0-1-1-1-1-1.12-4.5 0.125-3.5 0.125-3.5 1.12-4.5z" fill="#0192FD"/>
<path transform="translate(1049,1119)" d="m0 0c0.33 2.64 0.66 5.28 1 8-2.47-0.99-2.47-0.99-5-2-0.33 2.64-0.66 5.28-1 8-0.99-0.33-1.98-0.66-3-1 0.33-1.32 0.66-2.64 1-4-0.66-0.33-1.32-0.66-2-1 1.53-3.89 4.5-8 9-8z" fill="#0094FE"/>
<path transform="translate(424,837)" d="m0 0c2.38 0.188 2.38 0.188 5 1 1.6 2.89 2 4.69 2 8h-7c-1.11-3.33-0.845-5.62 0-9z" fill="#0192FD"/>
<path transform="translate(1326,763)" d="m0 0h1c-0.645 6.34-1.96 12.3-3.56 18.5-0.234 0.918-0.468 1.84-0.709 2.78-0.572 2.24-1.15 4.48-1.73 6.72h-1c-0.571-9.71 1.74-19.3 6-28z" fill="#0092FD"/>
<path transform="translate(341,709)" d="m0 0h6v2c1.65 0.33 3.3 0.66 5 1v6c-1.65 0.33-3.3 0.66-5 1-0.0619-0.722-0.124-1.44-0.188-2.19-1.06-3.66-3.02-5.3-5.81-7.81z" fill="#0094FE"/>
<path transform="translate(898,304)" d="m0 0c2.69 0.176 5.33 0.618 8 1 1.12 2.31 1.12 2.31 2 5-0.99 1.49-0.99 1.49-2 3-1.65-0.33-3.3-0.66-5-1-1-3-1-3 0-6-1.32-0.33-2.64-0.66-4-1 0.33-0.33 0.66-0.66 1-1z" fill="#0192FD"/>
<path transform="translate(683,130)" d="m0 0c-1.75 3.88-1.75 3.88-4 5-2.21 0.0709-4.42 0.0842-6.62 0.0625-1.19-0.00902-2.38-0.018-3.6-0.0273-0.915-0.0116-1.83-0.0232-2.77-0.0352 2.4-2.87 4.29-3.55 7.94-4.19 1.28-0.238 1.28-0.238 2.59-0.48 2.47-0.332 2.47-0.332 6.47-0.332z" fill="#008CF8"/>
<path transform="translate(851,177)" d="m0 0h7c0.33 1.98 0.66 3.96 1 6h-5c0.33 1.32 0.66 2.64 1 4-0.99 0.495-0.99 0.495-2 1-1.73-3.89-2-6.74-2-11z" fill="#0094FE"/>
<path transform="translate(1099,548)" d="m0 0v5c-3.12 1.6-4.39 2.19-7.81 1.12-0.722-0.371-1.44-0.742-2.19-1.12 0.66-0.66 1.32-1.32 2-2-0.33-0.66-0.66-1.32-1-2 3.2-1.07 5.66-1.07 9-1z" fill="#0091FD"/>
<path transform="translate(591,922)" d="m0 0c2 3 2 3 2 5h7c0.33 1.65 0.66 3.3 1 5-3.2 1.6-5.72 0.0317-9-1-0.33-2.97-0.66-5.94-1-9z" fill="#0094FE"/>
<path transform="translate(1166,370)" d="m0 0h2v3c0.99 0.33 1.98 0.66 3 1h-3c0.454 0.454 0.908 0.908 1.38 1.38 1.21 1.21 2.42 2.42 3.62 3.62-0.639 0.124-1.28 0.248-1.94 0.375-0.681 0.206-1.36 0.413-2.06 0.625-0.33 0.66-0.66 1.32-1 2-1.32-0.66-2.64-1.32-4-2 0.144-0.638 0.289-1.28 0.438-1.93 0.186-0.826 0.371-1.65 0.562-2.5 0.278-1.24 0.278-1.24 0.562-2.5 0.472-1.88 0.472-1.88 0.438-3.07z" fill="#0091FD"/>
<path transform="translate(1041 1021)" d="m0 0c2.94 1.31 2.94 1.31 3.81 3.44 0.0619 0.928 0.0619 0.928 0.125 1.88-7.43 0.286-7.43 0.286-11-2l2-1v-2c2-1 2-1 5.06-0.312z" fill="#0192FD"/>
<path transform="translate(363,865)" d="m0 0h7c-0.474 0.784-0.949 1.57-1.44 2.38-0.901 1.51-1.77 3.05-2.56 4.62h2l-2 4c-0.66-0.66-1.32-1.32-2-2l1-2h-4c0.576-2.39 1.22-4.67 2-7z" fill="#0094FE"/>
<path transform="translate(1124,634)" d="m0 0c0.99 0.33 1.98 0.66 3 1 2.14-0.389 2.14-0.389 4-1 0.33 1.98 0.66 3.96 1 6-2.31 1.12-2.31 1.12-5 2-0.99-0.66-1.98-1.32-3-2-0.188-3.12-0.188-3.12 0-6z" fill="#0091FD"/>
<path transform="translate(1098,221)" d="m0 0c0.66 1.32 1.32 2.64 2 4h2c0.25 2.31 0.25 2.31 0 5-2 1.81-2 1.81-4 3-0.247-0.949-0.495-1.9-0.75-2.88-0.936-3.21-0.936-3.21-3.38-4.5-0.619-0.206-1.24-0.412-1.88-0.625h6v-4z" fill="#0093FD"/>
<path transform="translate(750,353)" d="m0 0c-0.33 1.98-0.66 3.96-1 6-3-1-3-1-4-2l-3 3v-3l-2-1v-3c3.28-1.64 6.43-0.519 10 0z" fill="#0192FD"/>
<path transform="translate(362,394)" d="m0 0h6v5c0.619 0.124 1.24 0.248 1.88 0.375 2.12 0.625 2.12 0.625 4.12 2.62-3.3-0.33-6.6-0.66-10-1v-6c-0.66-0.33-1.32-0.66-2-1z" fill="#0095FC"/>
<path transform="translate(827,154)" d="m0 0c0.33 0.99 0.66 1.98 1 3h6v2c1.65 0.33 3.3 0.66 5 1v3c-4.09 0.24-7.18-0.577-11-2 1.32-0.33 2.64-0.66 4-1v-2h-7c1-3 1-3 2-4z" fill="#0094FE"/>
<path transform="translate(1096,361)" d="m0 0c2.5 2.31 2.5 2.31 5 5v3h-7c-1.35-2.7-0.803-4.15 0-7 0.66-0.33 1.32-0.66 2-1z" fill="#0091FD"/>
<path transform="translate(845,158)" d="m0 0h7c-1 2-1 2-3 4v2c-1.32 0.33-2.64 0.66-4 1v3h-4c0.33-0.66 0.66-1.32 1-2-0.99-0.99-1.98-1.98-3-3h8v-4c-0.66-0.33-1.32-0.66-2-1z" fill="#0094FE"/>
<path transform="translate(630,380)" d="m0 0c3 1 3 1 5 2v6c0.99 0.33 1.98 0.66 3 1v4c-0.99 0.33-1.98 0.66-3 1v-4c-1.32-0.33-2.64-0.66-4-1-0.33 0.99-0.66 1.98-1 3v-6c0.33 0.66 0.66 1.32 1 2h3v-5h-4v-3z" fill="#0192FD"/>
<path transform="translate(706,368)" d="m0 0c2.34 0.287 4.67 0.619 7 1-0.25 1.88-0.25 1.88-1 4-2.28 1.44-4.43 2.14-7 3-0.0424-2.33-0.0409-4.67 0-7 0.33-0.33 0.66-0.66 1-1z" fill="#0091FD"/>
<path transform="translate(645,182)" d="m0 0h1v5h-3c-0.33 2.64-0.66 5.28-1 8-0.66-0.33-1.32-0.66-2-1v-4c-0.66-0.66-1.32-1.32-2-2-0.33-0.99-0.66-1.98-1-3 2.97 0.495 2.97 0.495 6 1 0.66-1.32 1.32-2.64 2-4z" fill="#0095FC"/>
<path transform="translate(570 919)" d="m0 0c0.897 0.526 0.897 0.526 1.81 1.06h-3c0.195 1.95 0.195 1.95 1 4 1.98 1.28 1.98 1.28 4 2-0.33 0.66-0.66 1.32-1 2-2.31-0.66-4.62-1.32-7-2-0.33 0.99-0.66 1.98-1 3v-3c-0.66-0.33-1.32-0.66-2-1h4v-4c-0.66-0.66-1.32-1.32-2-2 3-1 3-1 5.19-0.0625z" fill="#0094FE"/>
<path transform="translate(1276,806)" d="m0 0c0.33 0.66 0.66 1.32 1 2 0.99 0.33 1.98 0.66 3 1-0.33 1.65-0.66 3.3-1 5h-5c-0.66-1.32-1.32-2.64-2-4 2-3 2-3 4-4z" fill="#0091FD"/>
<path transform="translate(996,961)" d="m0 0c0.66 0.33 1.32 0.66 2 1v3c0.33-0.99 0.66-1.98 1-3h2v7h-6c-1.21-3.62-0.543-4.64 1-8z" fill="#0192FD"/>
<path transform="translate(1059,944)" d="m0 0h4v7h-7c0.99-2.31 1.98-4.62 3-7z" fill="#0192FD"/>
<path transform="translate(1027,399)" d="m0 0v4h-2v2c0.66 0.33 1.32 0.66 2 1-2.49 1.25-3.41 0.777-6 0-0.33-1.98-0.66-3.96-1-6 2.46-1.23 4.28-1.07 7-1z" fill="#0091FD"/>
<path transform="translate(476,969)" d="m0 0 1 2h2c0.124 0.639 0.248 1.28 0.375 1.94 0.309 1.02 0.309 1.02 0.625 2.06 0.66 0.33 1.32 0.66 2 1h-10v-4h4v-3z" fill="#0094FE"/>
<path transform="translate(1230 568)" d="m0 0c1.21 0.0309 1.21 0.0309 2.44 0.0625 0.33 2.31 0.66 4.62 1 7h-5c-0.66-1.98-1.32-3.96-2-6 1-1 1-1 3.56-1.06z" fill="#0091FD"/>
<path transform="translate(868,436)" d="m0 0c1.42-0.0545 2.83-0.093 4.25-0.125 0.789-0.0232 1.58-0.0464 2.39-0.0703 2.57 0.212 4.15 0.909 6.36 2.2-0.33 1.32-0.66 2.64-1 4-3.96-1.65-7.92-3.3-12-5v-1z" fill="#0095FC"/>
<path transform="translate(956,1286)" d="m0 0h3c0.981 3.05 0.981 4.95 0 8-1.32 0.33-2.64 0.66-4 1-0.81-2.91-1.22-4.46-0.0625-7.31 0.351-0.557 0.701-1.11 1.06-1.69z" fill="#0095FC"/>
<path transform="translate(900,1223)" d="m0 0c2.12 0.938 2.12 0.938 4 2v4c-2.31 0.33-4.62 0.66-7 1 0.375-2.94 0.375-2.94 1-6 0.66-0.33 1.32-0.66 2-1z" fill="#0192FD"/>
<path transform="translate(418,880)" d="m0 0h5c0.99 1.98 1.98 3.96 3 6-1.65 0.33-3.3 0.66-5 1v-2c-1.65-0.33-3.3-0.66-5-1l2-4z" fill="#0091FD"/>
<path transform="translate(1012,593)" d="m0 0h2c3 5.99 2.11 14.5 2 21-2.14-3.21-2.32-4.5-2.56-8.25-0.319-4.29-0.776-8.5-1.44-12.8z" fill="#0192FD"/>
<path transform="translate(1060,1049)" d="m0 0h7c0.33 1.98 0.66 3.96 1 6-0.33-0.66-0.66-1.32-1-2-0.949 0.206-1.9 0.412-2.88 0.625-1.03 0.124-2.06 0.247-3.12 0.375-0.66-0.66-1.32-1.32-2-2 0.33-0.99 0.66-1.98 1-3z" fill="#0094FE"/>
<path transform="translate(1e3 576)" d="m0 0c1.32 0.33 2.64 0.66 4 1v13c-0.66-0.33-1.32-0.66-2-1-0.633-1.93-0.633-1.93-1.12-4.31-0.168-0.78-0.335-1.56-0.508-2.36-0.367-2.32-0.367-2.32-0.367-6.32z" fill="#0093FD"/>
<path transform="translate(1311,489)" d="m0 0h3c0.66 3.96 1.32 7.92 2 12h-4c0.0206-0.784 0.0412-1.57 0.0625-2.38 0.124-2.61 0.124-2.61-1.06-4.62v-5z" fill="#0094FD"/>
<path transform="translate(760,391)" d="m0 0c1.31 2.06 1.31 2.06 2 4-2.81 0.688-2.81 0.688-6 1-1.88-1.31-1.88-1.31-3-3v-2c2.74-1.37 4.12-0.936 7 0z" fill="#0192FD"/>
<path transform="translate(816,1143)" d="m0 0c1.65 0.99 3.3 1.98 5 3 0.66-0.66 1.32-1.32 2-2v3h10c-4.07 2.03-5.78 2.25-10.2 2.19-1.07-0.00645-2.13-0.0129-3.23-0.0195-2.58-0.168-2.58-0.168-3.58-1.17-0.0406-1.67-0.0427-3.33 0-5z" fill="#0094FE"/>
<path transform="translate(792,1246)" d="m0 0c1.49 0.99 1.49 0.99 3 2 1.66 0.385 3.32 0.728 5 1-0.33 0.99-0.66 1.98-1 3-0.66-0.33-1.32-0.66-2-1-0.33 1.32-0.66 2.64-1 4l-2-4h-3c0.33-1.65 0.66-3.3 1-5z" fill="#0094FE"/>
<path transform="translate(315,536)" d="m0 0c3.3 0.33 6.6 0.66 10 1v2c-2.31 1.69-2.31 1.69-5 3-0.99-0.33-1.98-0.66-3-1-1.19-2.56-1.19-2.56-2-5z" fill="#0094FE"/>
<path transform="translate(574,461)" d="m0 0c2.48 0.99 2.48 0.99 5 2v5h-6c0.33-0.99 0.66-1.98 1-3-0.66-0.66-1.32-1.32-2-2 0.66-0.66 1.32-1.32 2-2z" fill="#0091FD"/>
<path transform="translate(550,390)" d="m0 0c6.05-0.195 6.05-0.195 8 0 2 2 2 2 3 4-2.52 0.901-3.57 1.19-6.06 0.0625-0.639-0.351-1.28-0.701-1.94-1.06h-3v-3z" fill="#0091FD"/>
<path transform="translate(771,363)" d="m0 0h5c0.33 1.98 0.66 3.96 1 6h-6c-0.382-1.66-0.714-3.32-1-5 0.33-0.33 0.66-0.66 1-1z" fill="#0091FD"/>
<path transform="translate(924 176)" d="m0 0c1.94 0.688 1.94 0.688 2.94 2.69 0.66 0.33 1.32 0.66 2 1v2h-7c-0.66-1.65-1.32-3.3-2-5 2-1 2-1 4.06-0.688z" fill="#0095FC"/>
<path transform="translate(951,149)" d="m0 0h6v2c0.66 0.66 1.32 1.32 2 2-0.66 1.32-1.32 2.64-2 4-3.49-2.21-4.73-4.09-6-8z" fill="#0094FE"/>
<path transform="translate(874,1376)" d="m0 0c0.99 0.33 1.98 0.66 3 1-0.33 3.3-0.66 6.6-1 10-2.06-1.62-2.06-1.62-4-4 0.312-5.31 0.312-5.31 2-7z" fill="#0094FE"/>
<path transform="translate(730,1268)" d="m0 0c0.33 0.99 0.66 1.98 1 3 1.65 0.33 3.3 0.66 5 1l-1 2c-3.95-0.551-7.35-1.39-11-3v-2c1.98-0.33 3.96-0.66 6-1z" fill="#0094FE"/>
<path transform="translate(937,1104)" d="m0 0c0.33 0.99 0.66 1.98 1 3 0.99 0.66 1.98 1.32 3 2-0.99 0.495-0.99 0.495-2 1-0.66-0.33-1.32-0.66-2-1 0.33 0.99 0.66 1.98 1 3-2.31 0.625-2.31 0.625-5 1-0.99-0.66-1.98-1.32-3-2 2.49-1.25 3.41-0.777 6 0v-4h-5v-1c1.98-0.66 3.96-1.32 6-2z" fill="#0094FE"/>
<path transform="translate(974,1087)" d="m0 0h8c-0.99 0.495-0.99 0.495-2 1v3c0.66 0.33 1.32 0.66 2 1h-14v-1h9v-3c-0.99-0.33-1.98-0.66-3-1z" fill="#0094FE"/>
<path transform="translate(482,929)" d="m0 0c2.97 0.495 2.97 0.495 6 1v6c-2.38-0.25-2.38-0.25-5-1-1.38-1.94-1.38-1.94-2-4l1-2z" fill="#0192FD"/>
<path transform="translate(1311,792)" d="m0 0c2.38 0.188 2.38 0.188 5 1 1.44 2.31 1.44 2.31 2 5-0.875 2.31-0.875 2.31-2 4-0.66-0.99-1.32-1.98-2-3h-3c-0.33-0.99-0.66-1.98-1-3 1.32-0.66 2.64-1.32 4-2h-3v-2z" fill="#0092FD"/>
<path transform="translate(515,212)" d="m0 0v3c-2.97-0.495-2.97-0.495-6-1v2h-2c-0.33 1.32-0.66 2.64-1 4h-2v-2h2c0.217-0.928 0.217-0.928 0.438-1.88 0.562-2.12 0.562-2.12 1.56-4.12 3.13-1.04 3.99-0.934 7 0z" fill="#0095FC"/>
<path transform="translate(758,1285)" d="m0 0h4c0.33 2.31 0.66 4.62 1 7h-5v-7z" fill="#0192FD"/>
<path transform="translate(269,754)" d="m0 0h3c2.12 7.62 2.12 7.62 1 11-2-1-2-1-3-2-0.232-1.51-0.412-3.04-0.562-4.56-0.0838-0.826-0.168-1.65-0.254-2.5-0.0606-0.638-0.121-1.28-0.184-1.93z" fill="#0092FD"/>
<path transform="translate(353,720)" d="m0 0c2.34 0.287 4.67 0.619 7 1v2c-4.29 0.66-8.58 1.32-13 2-0.33-1.32-0.66-2.64-1-4h3v2c2.77-1.71 2.77-1.71 4-3z" fill="#0094FE"/>
<path transform="translate(260,610)" d="m0 0h2v13c-3-3-3-3-3.33-4.97 0.217-5.81 0.217-5.81 1.33-8.03zm0 2 1 3z" fill="#008FFD"/>
<path transform="translate(703 346)" d="m0 0c1.45 0.0309 1.45 0.0309 2.94 0.0625v5h-6c-0.562-1.94-0.562-1.94-1-4 1-1 1-1 4.06-1.06z" fill="#0091FD"/>
<path transform="translate(523,308)" d="m0 0h7v5c-2.31 0.33-4.62 0.66-7 1 0.33-0.99 0.66-1.98 1-3-0.33-0.99-0.66-1.98-1-3z" fill="#0094FE"/>
<path transform="translate(408,895)" d="m0 0c2.64 0.33 5.28 0.66 8 1v5c-0.784-0.186-1.57-0.371-2.38-0.562-2.6-0.697-2.6-0.697-4.62 0.562-0.33-1.98-0.66-3.96-1-6z" fill="#0091FD"/>
<path transform="translate(1239,888)" d="m0 0c0.99 0.33 1.98 0.66 3 1 0.99-0.33 1.98-0.66 3-1 0.33 1.32 0.66 2.64 1 4l-2 1c0.99 0.33 1.98 0.66 3 1v1c-2.88 0.125-2.88 0.125-6 0-2-2-2-2-2.12-4.62 0.0412-0.784 0.0825-1.57 0.125-2.38z" fill="#0094FE"/>
<path transform="translate(1280,418)" d="m0 0c0.66 0.33 1.32 0.66 2 1v2c0.99 0.33 1.98 0.66 3 1h-2v8c-0.99-0.66-1.98-1.32-3-2v-3c-0.33-0.66-0.66-1.32-1-2 0.279-1.68 0.608-3.35 1-5z" fill="#0094FE"/>
<path transform="translate(769,312)" d="m0 0c1.75 1.44 1.75 1.44 3 3-0.33 0.99-0.66 1.98-1 3-2.97-0.495-2.97-0.495-6-1v-4c1.81-0.688 1.81-0.688 4-1z" fill="#0192FD"/>
<path transform="translate(704,1091)" d="m0 0h8c-0.33 0.99-0.66 1.98-1 3-0.66-0.33-1.32-0.66-2-1-0.33 1.32-0.66 2.64-1 4-0.99-0.33-1.98-0.66-3-1-0.33-1.65-0.66-3.3-1-5z" fill="#0094FE"/>
<path transform="translate(995,1019)" d="m0 0c2.88 0.25 2.88 0.25 6 1 1.38 2.06 1.38 2.06 2 4h-7c-0.33-1.65-0.66-3.3-1-5z" fill="#0094FE"/>
<path transform="translate(908,1254)" d="m0 0c0.99 0.33 1.98 0.66 3 1 0.33 1.98 0.66 3.96 1 6l-4 2c-0.66-0.66-1.32-1.32-2-2 0.66-0.99 1.32-1.98 2-3v-4z" fill="#0094FE"/>
<path transform="translate(623,960)" d="m0 0c0.66 0.33 1.32 0.66 2 1v2h6c-3.84 2.67-7.4 1.84-11.8 1.12-1.05-0.157-1.05-0.157-2.11-0.316-1.71-0.258-3.43-0.532-5.14-0.809l2-2c2.16 0.0234 2.16 0.0234 4.62 0.375 1.23 0.166 1.23 0.166 2.48 0.336 0.626 0.0954 1.25 0.191 1.9 0.289v-2z" fill="#0094FE"/>
<path transform="translate(429,852)" d="m0 0h5c0.33 1.65 0.66 3.3 1 5-1.65 0.33-3.3 0.66-5 1-0.33-1.98-0.66-3.96-1-6z" fill="#0192FD"/>
<path transform="translate(488,706)" d="m0 0h8c-0.33 1.32-0.66 2.64-1 4-1.81 0.625-1.81 0.625-4 1-0.99-0.66-1.98-1.32-3-2v-3z" fill="#0091FD"/>
<path transform="translate(400,546)" d="m0 0c2.31 0.66 4.62 1.32 7 2l-2 1c-0.33 0.99-0.66 1.98-1 3-1.65 0.33-3.3 0.66-5 1 0.33-2.31 0.66-4.62 1-7z" fill="#0094FE"/>
<path transform="translate(406,477)" d="m0 0c1.32 0.33 2.64 0.66 4 1v5c-2.44-0.375-2.44-0.375-5-1-0.33-0.66-0.66-1.32-1-2 0.66-0.99 1.32-1.98 2-3z" fill="#0094FE"/>
<path transform="translate(759,307)" d="m0 0c2.06 0.438 2.06 0.438 4 1 0.33 1.65 0.66 3.3 1 5h-5c-0.382-1.66-0.714-3.32-1-5 0.33-0.33 0.66-0.66 1-1z" fill="#0192FD"/>
<path transform="translate(827,249)" d="m0 0c3.02 0.588 6.02 1.23 9 2 0.33-0.66 0.66-1.32 1-2v2c1.32-0.33 2.64-0.66 4-1v2c-0.784 0.309-1.57 0.619-2.38 0.938-2.55 0.991-2.55 0.991-4.62 2.06v-3c-0.969-0.124-1.94-0.248-2.94-0.375-1.01-0.206-2.02-0.412-3.06-0.625-0.33-0.66-0.66-1.32-1-2z" fill="#0094FE"/>
<path transform="translate(891,1149)" d="m0 0c0.33 0.619 0.66 1.24 1 1.88 2.96 3.14 5.81 3.3 10 4.12v1h-10c-0.33-0.99-0.66-1.98-1-3-0.66-0.33-1.32-0.66-2-1 1-2 1-2 2-3z" fill="#0094FE"/>
<path transform="translate(1081,946)" d="m0 0v5c-2.31-0.66-4.62-1.32-7-2 0.33-0.99 0.66-1.98 1-3 3-1 3-1 6 0z" fill="#0192FD"/>
<path transform="translate(906,921)" d="m0 0c2.88-0.125 2.88-0.125 6 0 0.66 0.66 1.32 1.32 2 2-0.33 0.66-0.66 1.32-1 2 1.32 0.33 2.64 0.66 4 1h-7c0.33-0.99 0.66-1.98 1-3-1.98 0.33-3.96 0.66-6 1 0.33-0.99 0.66-1.98 1-3z" fill="#0095FC"/>
<path transform="translate(480 654)" d="m0 0c1.45 0.0309 1.45 0.0309 2.94 0.0625-0.33 0.66-0.66 1.32-1 2 0.66 0.66 1.32 1.32 2 2-2.31 0.33-4.62 0.66-7 1-0.562-1.94-0.562-1.94-1-4 1-1 1-1 4.06-1.06z" fill="#0192FD"/>
<path transform="translate(1260,612)" d="m0 0v5h-5c-0.33-1.65-0.66-3.3-1-5 3-1 3-1 6 0z" fill="#0192FD"/>
<path transform="translate(1294,495)" d="m0 0c0.66 0.33 1.32 0.66 2 1v6h-4c-0.553-2.08-1-3.84-1-6 0.99-0.33 1.98-0.66 3-1z" fill="#0091FD"/>
<path transform="translate(1043,316)" d="m0 0c2.15 3.23 2.2 4.28 2 8-2.47-0.99-2.47-0.99-5-2v-5c0.99-0.33 1.98-0.66 3-1z" fill="#0091FD"/>
<path transform="translate(262,583)" d="m0 0 1 4z" fill="#0095FC"/>
<path transform="translate(828,428)" d="m0 0c3 1 3 1 3 1z" fill="#000102"/>
<path transform="translate(769,428)" d="m0 0 2 1z" fill="#000102"/>
<path transform="translate(821,427)" d="m0 0 2 1z" fill="#000102"/>
</svg>
